<mxfile host="app.diagrams.net" modified="2024-03-18T19:29:18.462Z" agent="Mozilla/5.0 (Windows NT 10.0; Win64; x64) AppleWebKit/537.36 (KHTML, like Gecko) Chrome/122.0.0.0 Safari/537.36" etag="eIREZlStRxWruSEeowB8" version="24.0.0" type="github">
  <diagram name="PÃ¡gina-1" id="qiHpDGZn6VhQj4VIVOyE">
    <mxGraphModel dx="7261" dy="3896" grid="1" gridSize="10" guides="1" tooltips="1" connect="1" arrows="1" fold="1" page="1" pageScale="1" pageWidth="827" pageHeight="1169" math="0" shadow="0">
      <root>
        <mxCell id="0" />
        <mxCell id="1" parent="0" />
        <mxCell id="zIDfhM2YU5ujpkhZHymJ-1" value="&lt;font style=&quot;&quot;&gt;&lt;font style=&quot;font-size: 27px;&quot; color=&quot;#000066&quot;&gt;CON-NVAT-PDV&lt;/font&gt;&lt;/font&gt;" style="whiteSpace=wrap;html=1;rounded=1;shadow=1;comic=0;strokeWidth=1;fontFamily=Verdana;fontSize=14;fillColor=#f5f5f5;strokeColor=none;verticalAlign=top;fontStyle=1;glass=0;" vertex="1" parent="1">
          <mxGeometry x="440" y="-240" width="290" height="275" as="geometry" />
        </mxCell>
        <mxCell id="zIDfhM2YU5ujpkhZHymJ-216" value="server" style="fontColor=#0066CC;verticalAlign=top;verticalLabelPosition=bottom;labelPosition=center;align=center;html=1;fillColor=#CCCCCC;strokeColor=#6881B3;gradientColor=none;gradientDirection=north;strokeWidth=2;shape=mxgraph.networks.server;rounded=1;shadow=0;comic=0;labelBackgroundColor=#ffffff;" vertex="1" parent="1">
          <mxGeometry x="540" y="-141" width="90" height="101" as="geometry" />
        </mxCell>
        <mxCell id="zIDfhM2YU5ujpkhZHymJ-217" value="&lt;font color=&quot;#000066&quot; style=&quot;font-size: 27px;&quot;&gt;CON-NVAT-AD&lt;/font&gt;" style="whiteSpace=wrap;html=1;rounded=1;shadow=1;comic=0;strokeWidth=1;fontFamily=Verdana;fontSize=14;fillColor=#f5f5f5;strokeColor=none;verticalAlign=top;fontStyle=1;glass=0;" vertex="1" parent="1">
          <mxGeometry x="790" y="-240" width="290" height="275" as="geometry" />
        </mxCell>
        <mxCell id="zIDfhM2YU5ujpkhZHymJ-218" value="server" style="fontColor=#0066CC;verticalAlign=top;verticalLabelPosition=bottom;labelPosition=center;align=center;html=1;fillColor=#CCCCCC;strokeColor=#6881B3;gradientColor=none;gradientDirection=north;strokeWidth=2;shape=mxgraph.networks.server;rounded=1;shadow=0;comic=0;labelBackgroundColor=#ffffff;" vertex="1" parent="1">
          <mxGeometry x="890" y="-141" width="90" height="101" as="geometry" />
        </mxCell>
        <mxCell id="zIDfhM2YU5ujpkhZHymJ-219" value="&lt;font color=&quot;#000066&quot; style=&quot;font-size: 25px;&quot;&gt;CON-NVAT-NFE&lt;/font&gt;" style="whiteSpace=wrap;html=1;rounded=1;shadow=1;comic=0;strokeWidth=1;fontFamily=Verdana;fontSize=14;fillColor=#f5f5f5;strokeColor=none;verticalAlign=top;fontStyle=1;glass=0;" vertex="1" parent="1">
          <mxGeometry x="1130" y="-240" width="290" height="275" as="geometry" />
        </mxCell>
        <mxCell id="zIDfhM2YU5ujpkhZHymJ-220" value="server" style="fontColor=#0066CC;verticalAlign=top;verticalLabelPosition=bottom;labelPosition=center;align=center;html=1;fillColor=#CCCCCC;strokeColor=#6881B3;gradientColor=none;gradientDirection=north;strokeWidth=2;shape=mxgraph.networks.server;rounded=1;shadow=0;comic=0;labelBackgroundColor=#ffffff;" vertex="1" parent="1">
          <mxGeometry x="1230" y="-141" width="90" height="101" as="geometry" />
        </mxCell>
        <mxCell id="zIDfhM2YU5ujpkhZHymJ-221" value="&lt;font color=&quot;#000066&quot; style=&quot;font-size: 25px;&quot;&gt;CON-NVAT-WEB&lt;/font&gt;" style="whiteSpace=wrap;html=1;rounded=1;shadow=1;comic=0;strokeWidth=1;fontFamily=Verdana;fontSize=14;fillColor=#f5f5f5;strokeColor=none;verticalAlign=top;fontStyle=1;glass=0;" vertex="1" parent="1">
          <mxGeometry x="1480" y="-240" width="290" height="275" as="geometry" />
        </mxCell>
        <mxCell id="zIDfhM2YU5ujpkhZHymJ-222" value="server" style="fontColor=#0066CC;verticalAlign=top;verticalLabelPosition=bottom;labelPosition=center;align=center;html=1;fillColor=#CCCCCC;strokeColor=#6881B3;gradientColor=none;gradientDirection=north;strokeWidth=2;shape=mxgraph.networks.server;rounded=1;shadow=0;comic=0;labelBackgroundColor=#ffffff;" vertex="1" parent="1">
          <mxGeometry x="1580" y="-141" width="90" height="101" as="geometry" />
        </mxCell>
        <mxCell id="zIDfhM2YU5ujpkhZHymJ-227" value="&lt;font color=&quot;#000066&quot; style=&quot;font-size: 25px;&quot;&gt;CON-NVAT-WMS&lt;/font&gt;" style="whiteSpace=wrap;html=1;rounded=1;shadow=1;comic=0;strokeWidth=1;fontFamily=Verdana;fontSize=14;fillColor=#f5f5f5;strokeColor=none;verticalAlign=top;fontStyle=1;glass=0;" vertex="1" parent="1">
          <mxGeometry x="1830" y="-240" width="290" height="275" as="geometry" />
        </mxCell>
        <mxCell id="zIDfhM2YU5ujpkhZHymJ-228" value="server" style="fontColor=#0066CC;verticalAlign=top;verticalLabelPosition=bottom;labelPosition=center;align=center;html=1;fillColor=#CCCCCC;strokeColor=#6881B3;gradientColor=none;gradientDirection=north;strokeWidth=2;shape=mxgraph.networks.server;rounded=1;shadow=0;comic=0;labelBackgroundColor=#ffffff;" vertex="1" parent="1">
          <mxGeometry x="1930" y="-129" width="90" height="101" as="geometry" />
        </mxCell>
        <mxCell id="zIDfhM2YU5ujpkhZHymJ-233" value="&lt;font color=&quot;#000066&quot; style=&quot;font-size: 25px;&quot;&gt;UNIFI-CHAMADOS&lt;/font&gt;" style="whiteSpace=wrap;html=1;rounded=1;shadow=1;comic=0;strokeWidth=1;fontFamily=Verdana;fontSize=14;fillColor=#f5f5f5;strokeColor=none;verticalAlign=top;fontStyle=1;glass=0;" vertex="1" parent="1">
          <mxGeometry x="440" y="145.5" width="290" height="275" as="geometry" />
        </mxCell>
        <mxCell id="zIDfhM2YU5ujpkhZHymJ-234" value="server" style="fontColor=#0066CC;verticalAlign=top;verticalLabelPosition=bottom;labelPosition=center;align=center;html=1;fillColor=#CCCCCC;strokeColor=#6881B3;gradientColor=none;gradientDirection=north;strokeWidth=2;shape=mxgraph.networks.server;rounded=1;shadow=0;comic=0;labelBackgroundColor=#ffffff;" vertex="1" parent="1">
          <mxGeometry x="540" y="244.5" width="90" height="101" as="geometry" />
        </mxCell>
        <mxCell id="zIDfhM2YU5ujpkhZHymJ-235" value="&lt;font color=&quot;#000066&quot; style=&quot;font-size: 25px;&quot;&gt;CARTAZ-CHAMADOS&lt;/font&gt;" style="whiteSpace=wrap;html=1;rounded=1;shadow=1;comic=0;strokeWidth=1;fontFamily=Verdana;fontSize=14;fillColor=#f5f5f5;strokeColor=none;verticalAlign=top;fontStyle=1;glass=0;" vertex="1" parent="1">
          <mxGeometry x="790" y="145.5" width="290" height="275" as="geometry" />
        </mxCell>
        <mxCell id="zIDfhM2YU5ujpkhZHymJ-236" value="server" style="fontColor=#0066CC;verticalAlign=top;verticalLabelPosition=bottom;labelPosition=center;align=center;html=1;fillColor=#CCCCCC;strokeColor=#6881B3;gradientColor=none;gradientDirection=north;strokeWidth=2;shape=mxgraph.networks.server;rounded=1;shadow=0;comic=0;labelBackgroundColor=#ffffff;" vertex="1" parent="1">
          <mxGeometry x="890" y="244.5" width="90" height="101" as="geometry" />
        </mxCell>
        <mxCell id="zIDfhM2YU5ujpkhZHymJ-237" value="&lt;font color=&quot;#000066&quot;&gt;&lt;span style=&quot;font-size: 25px;&quot;&gt;Unknown&lt;/span&gt;&lt;/font&gt;" style="whiteSpace=wrap;html=1;rounded=1;shadow=1;comic=0;strokeWidth=1;fontFamily=Verdana;fontSize=14;fillColor=#f5f5f5;strokeColor=none;verticalAlign=top;fontStyle=1;glass=0;" vertex="1" parent="1">
          <mxGeometry x="1130" y="145.5" width="290" height="275" as="geometry" />
        </mxCell>
        <mxCell id="zIDfhM2YU5ujpkhZHymJ-238" value="server" style="fontColor=#0066CC;verticalAlign=top;verticalLabelPosition=bottom;labelPosition=center;align=center;html=1;fillColor=#CCCCCC;strokeColor=#6881B3;gradientColor=none;gradientDirection=north;strokeWidth=2;shape=mxgraph.networks.server;rounded=1;shadow=0;comic=0;labelBackgroundColor=#ffffff;" vertex="1" parent="1">
          <mxGeometry x="1230" y="244.5" width="90" height="101" as="geometry" />
        </mxCell>
        <mxCell id="zIDfhM2YU5ujpkhZHymJ-239" value="&lt;font color=&quot;#000066&quot; style=&quot;font-size: 25px;&quot;&gt;Unknown&lt;/font&gt;" style="whiteSpace=wrap;html=1;rounded=1;shadow=1;comic=0;strokeWidth=1;fontFamily=Verdana;fontSize=14;fillColor=#f5f5f5;strokeColor=none;verticalAlign=top;fontStyle=1;glass=0;" vertex="1" parent="1">
          <mxGeometry x="1480" y="145.5" width="290" height="275" as="geometry" />
        </mxCell>
        <mxCell id="zIDfhM2YU5ujpkhZHymJ-240" value="server" style="fontColor=#0066CC;verticalAlign=top;verticalLabelPosition=bottom;labelPosition=center;align=center;html=1;fillColor=#CCCCCC;strokeColor=#6881B3;gradientColor=none;gradientDirection=north;strokeWidth=2;shape=mxgraph.networks.server;rounded=1;shadow=0;comic=0;labelBackgroundColor=#ffffff;" vertex="1" parent="1">
          <mxGeometry x="1580" y="244.5" width="90" height="101" as="geometry" />
        </mxCell>
        <mxCell id="zIDfhM2YU5ujpkhZHymJ-241" value="&lt;font color=&quot;#000066&quot; style=&quot;font-size: 25px;&quot;&gt;Unknown&lt;/font&gt;" style="whiteSpace=wrap;html=1;rounded=1;shadow=1;comic=0;strokeWidth=1;fontFamily=Verdana;fontSize=14;fillColor=#f5f5f5;strokeColor=none;verticalAlign=top;fontStyle=1;glass=0;" vertex="1" parent="1">
          <mxGeometry x="1830" y="145.5" width="290" height="275" as="geometry" />
        </mxCell>
        <mxCell id="zIDfhM2YU5ujpkhZHymJ-242" value="server" style="fontColor=#0066CC;verticalAlign=top;verticalLabelPosition=bottom;labelPosition=center;align=center;html=1;fillColor=#CCCCCC;strokeColor=#6881B3;gradientColor=none;gradientDirection=north;strokeWidth=2;shape=mxgraph.networks.server;rounded=1;shadow=0;comic=0;labelBackgroundColor=#ffffff;" vertex="1" parent="1">
          <mxGeometry x="1930" y="256.5" width="90" height="101" as="geometry" />
        </mxCell>
        <mxCell id="zIDfhM2YU5ujpkhZHymJ-245" value="" style="rounded=1;arcSize=50;align=left;spacingLeft=5;strokeColor=#4C9AFF;html=1;strokeWidth=2;fontSize=12" vertex="1" parent="1">
          <mxGeometry x="890" y="-530" width="800" height="190" as="geometry" />
        </mxCell>
        <mxCell id="zIDfhM2YU5ujpkhZHymJ-246" value="&lt;span style=&quot;font-size: 58px;&quot;&gt;&lt;font color=&quot;#000066&quot;&gt;Servidores&lt;/font&gt;&lt;/span&gt;" style="text;strokeColor=none;fillColor=none;html=1;fontSize=24;fontStyle=1;verticalAlign=middle;align=center;" vertex="1" parent="1">
          <mxGeometry x="1250" y="-455" width="100" height="40" as="geometry" />
        </mxCell>
        <mxCell id="zIDfhM2YU5ujpkhZHymJ-247" value="" style="rounded=1;arcSize=50;align=left;spacingLeft=5;strokeColor=#4C9AFF;html=1;strokeWidth=2;fontSize=12" vertex="1" parent="1">
          <mxGeometry x="-400" y="-800" width="800" height="190" as="geometry" />
        </mxCell>
        <mxCell id="zIDfhM2YU5ujpkhZHymJ-248" value="&lt;span style=&quot;font-size: 58px;&quot;&gt;&lt;font color=&quot;#000066&quot;&gt;Novo Atacarejo&lt;/font&gt;&lt;/span&gt;" style="text;strokeColor=none;fillColor=none;html=1;fontSize=24;fontStyle=1;verticalAlign=middle;align=center;" vertex="1" parent="1">
          <mxGeometry x="-50" y="-725" width="100" height="40" as="geometry" />
        </mxCell>
        <mxCell id="zIDfhM2YU5ujpkhZHymJ-249" value="&lt;font color=&quot;#000066&quot; style=&quot;font-size: 25px;&quot;&gt;CSC-Vitoria&lt;/font&gt;" style="whiteSpace=wrap;html=1;rounded=1;shadow=1;comic=0;strokeWidth=1;fontFamily=Verdana;fontSize=14;fillColor=#f5f5f5;strokeColor=none;verticalAlign=top;fontStyle=1;glass=0;" vertex="1" parent="1">
          <mxGeometry x="440" y="1675" width="290" height="275" as="geometry" />
        </mxCell>
        <mxCell id="zIDfhM2YU5ujpkhZHymJ-250" value="&lt;b style=&quot;border-color: var(--border-color); color: rgb(0, 0, 102);&quot;&gt;&lt;a href=&quot;https://177.221.35.137/&quot;&gt;WAN 1&lt;/a&gt;&lt;/b&gt;" style="ellipse;shape=cloud;whiteSpace=wrap;html=1;rounded=1;shadow=0;comic=0;strokeWidth=1;fontFamily=Verdana;fontSize=12;fillColor=#dae8fc;strokeColor=#6c8ebf;" vertex="1" parent="1">
          <mxGeometry x="622" y="1706" width="100" height="60" as="geometry" />
        </mxCell>
        <mxCell id="zIDfhM2YU5ujpkhZHymJ-251" value="Fortgate" style="fontColor=#0066CC;verticalAlign=top;verticalLabelPosition=bottom;labelPosition=center;align=center;html=1;fillColor=#CCCCCC;strokeColor=#6881B3;gradientColor=none;gradientDirection=north;strokeWidth=2;shape=mxgraph.networks.firewall;rounded=1;shadow=0;comic=0;labelBackgroundColor=#ffffff;" vertex="1" parent="1">
          <mxGeometry x="500" y="1744" width="100" height="100" as="geometry" />
        </mxCell>
        <mxCell id="zIDfhM2YU5ujpkhZHymJ-252" style="edgeStyle=none;html=1;labelBackgroundColor=none;endArrow=none;strokeWidth=2;fontFamily=Verdana;fontSize=28;fontColor=#0066CC;rounded=0;strokeColor=#6881B3;exitX=1.02;exitY=0.42;exitDx=0;exitDy=0;exitPerimeter=0;entryX=0.16;entryY=0.55;entryDx=0;entryDy=0;entryPerimeter=0;" edge="1" parent="1" source="zIDfhM2YU5ujpkhZHymJ-251" target="zIDfhM2YU5ujpkhZHymJ-250">
          <mxGeometry relative="1" as="geometry">
            <mxPoint x="679" y="1735" as="targetPoint" />
            <mxPoint x="600" y="1835" as="sourcePoint" />
          </mxGeometry>
        </mxCell>
        <mxCell id="zIDfhM2YU5ujpkhZHymJ-253" style="edgeStyle=none;html=1;labelBackgroundColor=none;endArrow=none;strokeWidth=2;fontFamily=Verdana;fontSize=28;fontColor=#0066CC;rounded=0;strokeColor=#6881B3;exitX=1.008;exitY=0.587;exitDx=0;exitDy=0;exitPerimeter=0;entryX=0.16;entryY=0.55;entryDx=0;entryDy=0;entryPerimeter=0;" edge="1" parent="1" source="zIDfhM2YU5ujpkhZHymJ-251" target="zIDfhM2YU5ujpkhZHymJ-254">
          <mxGeometry relative="1" as="geometry">
            <mxPoint x="646.2" y="1857.6" as="targetPoint" />
            <mxPoint x="560" y="1840" as="sourcePoint" />
          </mxGeometry>
        </mxCell>
        <mxCell id="zIDfhM2YU5ujpkhZHymJ-254" value="&lt;b style=&quot;border-color: var(--border-color); color: rgb(0, 0, 102);&quot;&gt;&lt;a style=&quot;border-color: var(--border-color);&quot; href=&quot;https://190.89.90.66/&quot;&gt;WAN 2&lt;/a&gt;&lt;/b&gt;" style="ellipse;shape=cloud;whiteSpace=wrap;html=1;rounded=1;shadow=0;comic=0;strokeWidth=1;fontFamily=Verdana;fontSize=12;fillColor=#dae8fc;strokeColor=#6c8ebf;" vertex="1" parent="1">
          <mxGeometry x="622" y="1815" width="100" height="60" as="geometry" />
        </mxCell>
        <mxCell id="zIDfhM2YU5ujpkhZHymJ-255" value="&lt;font color=&quot;#000066&quot; style=&quot;font-size: 25px;&quot;&gt;CD-JaboatÃ£o&lt;/font&gt;" style="whiteSpace=wrap;html=1;rounded=1;shadow=1;comic=0;strokeWidth=1;fontFamily=Verdana;fontSize=14;fillColor=#f5f5f5;strokeColor=none;verticalAlign=top;fontStyle=1;glass=0;" vertex="1" parent="1">
          <mxGeometry x="790" y="1675" width="290" height="275" as="geometry" />
        </mxCell>
        <mxCell id="zIDfhM2YU5ujpkhZHymJ-256" value="&lt;b style=&quot;border-color: var(--border-color); color: rgb(0, 0, 102);&quot;&gt;&lt;a href=&quot;https://187.103.71.25/&quot;&gt;WAN 1&lt;/a&gt;&lt;/b&gt;" style="ellipse;shape=cloud;whiteSpace=wrap;html=1;rounded=1;shadow=0;comic=0;strokeWidth=1;fontFamily=Verdana;fontSize=12;fillColor=#dae8fc;strokeColor=#6c8ebf;" vertex="1" parent="1">
          <mxGeometry x="972" y="1706" width="100" height="60" as="geometry" />
        </mxCell>
        <mxCell id="zIDfhM2YU5ujpkhZHymJ-257" value="Fortgate" style="fontColor=#0066CC;verticalAlign=top;verticalLabelPosition=bottom;labelPosition=center;align=center;html=1;fillColor=#CCCCCC;strokeColor=#6881B3;gradientColor=none;gradientDirection=north;strokeWidth=2;shape=mxgraph.networks.firewall;rounded=1;shadow=0;comic=0;labelBackgroundColor=#ffffff;" vertex="1" parent="1">
          <mxGeometry x="850" y="1744" width="100" height="100" as="geometry" />
        </mxCell>
        <mxCell id="zIDfhM2YU5ujpkhZHymJ-258" style="edgeStyle=none;html=1;labelBackgroundColor=none;endArrow=none;strokeWidth=2;fontFamily=Verdana;fontSize=28;fontColor=#0066CC;rounded=0;strokeColor=#6881B3;exitX=1.02;exitY=0.42;exitDx=0;exitDy=0;exitPerimeter=0;entryX=0.16;entryY=0.55;entryDx=0;entryDy=0;entryPerimeter=0;" edge="1" parent="1" source="zIDfhM2YU5ujpkhZHymJ-257" target="zIDfhM2YU5ujpkhZHymJ-256">
          <mxGeometry relative="1" as="geometry">
            <mxPoint x="1029" y="1735" as="targetPoint" />
            <mxPoint x="950" y="1835" as="sourcePoint" />
          </mxGeometry>
        </mxCell>
        <mxCell id="zIDfhM2YU5ujpkhZHymJ-259" style="edgeStyle=none;html=1;labelBackgroundColor=none;endArrow=none;strokeWidth=2;fontFamily=Verdana;fontSize=28;fontColor=#0066CC;rounded=0;strokeColor=#6881B3;exitX=1.008;exitY=0.587;exitDx=0;exitDy=0;exitPerimeter=0;entryX=0.16;entryY=0.55;entryDx=0;entryDy=0;entryPerimeter=0;" edge="1" parent="1" source="zIDfhM2YU5ujpkhZHymJ-257" target="zIDfhM2YU5ujpkhZHymJ-260">
          <mxGeometry relative="1" as="geometry">
            <mxPoint x="996.2" y="1857.6" as="targetPoint" />
            <mxPoint x="910" y="1840" as="sourcePoint" />
          </mxGeometry>
        </mxCell>
        <mxCell id="zIDfhM2YU5ujpkhZHymJ-260" value="&lt;b style=&quot;border-color: var(--border-color); color: rgb(0, 0, 102);&quot;&gt;&lt;a style=&quot;border-color: var(--border-color);&quot; href=&quot;https://138.219.44.254/&quot;&gt;WAN 2&lt;/a&gt;&lt;/b&gt;" style="ellipse;shape=cloud;whiteSpace=wrap;html=1;rounded=1;shadow=0;comic=0;strokeWidth=1;fontFamily=Verdana;fontSize=12;fillColor=#dae8fc;strokeColor=#6c8ebf;" vertex="1" parent="1">
          <mxGeometry x="972" y="1815" width="100" height="60" as="geometry" />
        </mxCell>
        <mxCell id="zIDfhM2YU5ujpkhZHymJ-261" value="&lt;font style=&quot;font-size: 25px;&quot; color=&quot;#000066&quot;&gt;CD-Moreno&lt;/font&gt;" style="whiteSpace=wrap;html=1;rounded=1;shadow=1;comic=0;strokeWidth=1;fontFamily=Verdana;fontSize=14;fillColor=#f5f5f5;strokeColor=none;verticalAlign=top;fontStyle=1;glass=0;" vertex="1" parent="1">
          <mxGeometry x="1150" y="1675" width="290" height="275" as="geometry" />
        </mxCell>
        <mxCell id="zIDfhM2YU5ujpkhZHymJ-262" value="&lt;b style=&quot;border-color: var(--border-color); color: rgb(0, 0, 102);&quot;&gt;&lt;a href=&quot;https://187.103.78.117/&quot;&gt;WAN 1&lt;/a&gt;&lt;/b&gt;" style="ellipse;shape=cloud;whiteSpace=wrap;html=1;rounded=1;shadow=0;comic=0;strokeWidth=1;fontFamily=Verdana;fontSize=12;fillColor=#dae8fc;strokeColor=#6c8ebf;" vertex="1" parent="1">
          <mxGeometry x="1332" y="1706" width="100" height="60" as="geometry" />
        </mxCell>
        <mxCell id="zIDfhM2YU5ujpkhZHymJ-263" value="Fortgate" style="fontColor=#0066CC;verticalAlign=top;verticalLabelPosition=bottom;labelPosition=center;align=center;html=1;fillColor=#CCCCCC;strokeColor=#6881B3;gradientColor=none;gradientDirection=north;strokeWidth=2;shape=mxgraph.networks.firewall;rounded=1;shadow=0;comic=0;labelBackgroundColor=#ffffff;" vertex="1" parent="1">
          <mxGeometry x="1210" y="1744" width="100" height="100" as="geometry" />
        </mxCell>
        <mxCell id="zIDfhM2YU5ujpkhZHymJ-264" style="edgeStyle=none;html=1;labelBackgroundColor=none;endArrow=none;strokeWidth=2;fontFamily=Verdana;fontSize=28;fontColor=#0066CC;rounded=0;strokeColor=#6881B3;exitX=1.02;exitY=0.42;exitDx=0;exitDy=0;exitPerimeter=0;entryX=0.16;entryY=0.55;entryDx=0;entryDy=0;entryPerimeter=0;" edge="1" parent="1" source="zIDfhM2YU5ujpkhZHymJ-263" target="zIDfhM2YU5ujpkhZHymJ-262">
          <mxGeometry relative="1" as="geometry">
            <mxPoint x="1389" y="1735" as="targetPoint" />
            <mxPoint x="1310" y="1835" as="sourcePoint" />
          </mxGeometry>
        </mxCell>
        <mxCell id="zIDfhM2YU5ujpkhZHymJ-265" style="edgeStyle=none;html=1;labelBackgroundColor=none;endArrow=none;strokeWidth=2;fontFamily=Verdana;fontSize=28;fontColor=#0066CC;rounded=0;strokeColor=#6881B3;exitX=1.008;exitY=0.587;exitDx=0;exitDy=0;exitPerimeter=0;entryX=0.16;entryY=0.55;entryDx=0;entryDy=0;entryPerimeter=0;" edge="1" parent="1" source="zIDfhM2YU5ujpkhZHymJ-263" target="zIDfhM2YU5ujpkhZHymJ-266">
          <mxGeometry relative="1" as="geometry">
            <mxPoint x="1356.2" y="1857.6" as="targetPoint" />
            <mxPoint x="1270" y="1840" as="sourcePoint" />
          </mxGeometry>
        </mxCell>
        <mxCell id="zIDfhM2YU5ujpkhZHymJ-266" value="&lt;b style=&quot;border-color: var(--border-color); color: rgb(0, 0, 102);&quot;&gt;WAN 2&lt;/b&gt;" style="ellipse;shape=cloud;whiteSpace=wrap;html=1;rounded=1;shadow=0;comic=0;strokeWidth=1;fontFamily=Verdana;fontSize=12;fillColor=#dae8fc;strokeColor=#6c8ebf;" vertex="1" parent="1">
          <mxGeometry x="1332" y="1815" width="100" height="60" as="geometry" />
        </mxCell>
        <mxCell id="zIDfhM2YU5ujpkhZHymJ-267" value="&lt;font color=&quot;#000066&quot; style=&quot;font-size: 25px;&quot;&gt;unknown&lt;/font&gt;" style="whiteSpace=wrap;html=1;rounded=1;shadow=1;comic=0;strokeWidth=1;fontFamily=Verdana;fontSize=14;fillColor=#f5f5f5;strokeColor=none;verticalAlign=top;fontStyle=1;glass=0;" vertex="1" parent="1">
          <mxGeometry x="1500" y="1675" width="290" height="275" as="geometry" />
        </mxCell>
        <mxCell id="zIDfhM2YU5ujpkhZHymJ-268" value="&lt;b style=&quot;border-color: var(--border-color); color: rgb(0, 0, 102);&quot;&gt;WAN 1&lt;/b&gt;" style="ellipse;shape=cloud;whiteSpace=wrap;html=1;rounded=1;shadow=0;comic=0;strokeWidth=1;fontFamily=Verdana;fontSize=12;fillColor=#dae8fc;strokeColor=#6c8ebf;" vertex="1" parent="1">
          <mxGeometry x="1682" y="1706" width="100" height="60" as="geometry" />
        </mxCell>
        <mxCell id="zIDfhM2YU5ujpkhZHymJ-269" value="Fortgate" style="fontColor=#0066CC;verticalAlign=top;verticalLabelPosition=bottom;labelPosition=center;align=center;html=1;fillColor=#CCCCCC;strokeColor=#6881B3;gradientColor=none;gradientDirection=north;strokeWidth=2;shape=mxgraph.networks.firewall;rounded=1;shadow=0;comic=0;labelBackgroundColor=#ffffff;" vertex="1" parent="1">
          <mxGeometry x="1560" y="1744" width="100" height="100" as="geometry" />
        </mxCell>
        <mxCell id="zIDfhM2YU5ujpkhZHymJ-270" style="edgeStyle=none;html=1;labelBackgroundColor=none;endArrow=none;strokeWidth=2;fontFamily=Verdana;fontSize=28;fontColor=#0066CC;rounded=0;strokeColor=#6881B3;exitX=1.02;exitY=0.42;exitDx=0;exitDy=0;exitPerimeter=0;entryX=0.16;entryY=0.55;entryDx=0;entryDy=0;entryPerimeter=0;" edge="1" parent="1" source="zIDfhM2YU5ujpkhZHymJ-269" target="zIDfhM2YU5ujpkhZHymJ-268">
          <mxGeometry relative="1" as="geometry">
            <mxPoint x="1739" y="1735" as="targetPoint" />
            <mxPoint x="1660" y="1835" as="sourcePoint" />
          </mxGeometry>
        </mxCell>
        <mxCell id="zIDfhM2YU5ujpkhZHymJ-271" style="edgeStyle=none;html=1;labelBackgroundColor=none;endArrow=none;strokeWidth=2;fontFamily=Verdana;fontSize=28;fontColor=#0066CC;rounded=0;strokeColor=#6881B3;exitX=1.008;exitY=0.587;exitDx=0;exitDy=0;exitPerimeter=0;entryX=0.16;entryY=0.55;entryDx=0;entryDy=0;entryPerimeter=0;" edge="1" parent="1" source="zIDfhM2YU5ujpkhZHymJ-269" target="zIDfhM2YU5ujpkhZHymJ-272">
          <mxGeometry relative="1" as="geometry">
            <mxPoint x="1706.2" y="1857.6" as="targetPoint" />
            <mxPoint x="1620" y="1840" as="sourcePoint" />
          </mxGeometry>
        </mxCell>
        <mxCell id="zIDfhM2YU5ujpkhZHymJ-272" value="&lt;b style=&quot;border-color: var(--border-color); color: rgb(0, 0, 102);&quot;&gt;&lt;a href=&quot;https://190.109.80.10/&quot; style=&quot;border-color: var(--border-color);&quot;&gt;WAN 2&lt;/a&gt;&lt;/b&gt;" style="ellipse;shape=cloud;whiteSpace=wrap;html=1;rounded=1;shadow=0;comic=0;strokeWidth=1;fontFamily=Verdana;fontSize=12;fillColor=#dae8fc;strokeColor=#6c8ebf;" vertex="1" parent="1">
          <mxGeometry x="1682" y="1815" width="100" height="60" as="geometry" />
        </mxCell>
        <mxCell id="zIDfhM2YU5ujpkhZHymJ-273" value="&lt;font color=&quot;#000066&quot; style=&quot;font-size: 25px;&quot;&gt;unknown&lt;/font&gt;" style="whiteSpace=wrap;html=1;rounded=1;shadow=1;comic=0;strokeWidth=1;fontFamily=Verdana;fontSize=14;fillColor=#f5f5f5;strokeColor=none;verticalAlign=top;fontStyle=1;glass=0;" vertex="1" parent="1">
          <mxGeometry x="1840" y="1675" width="290" height="275" as="geometry" />
        </mxCell>
        <mxCell id="zIDfhM2YU5ujpkhZHymJ-274" value="&lt;b style=&quot;border-color: var(--border-color); color: rgb(0, 0, 102);&quot;&gt;WAN 1&lt;/b&gt;" style="ellipse;shape=cloud;whiteSpace=wrap;html=1;rounded=1;shadow=0;comic=0;strokeWidth=1;fontFamily=Verdana;fontSize=12;fillColor=#dae8fc;strokeColor=#6c8ebf;" vertex="1" parent="1">
          <mxGeometry x="2022" y="1706" width="100" height="60" as="geometry" />
        </mxCell>
        <mxCell id="zIDfhM2YU5ujpkhZHymJ-275" value="Fortgate" style="fontColor=#0066CC;verticalAlign=top;verticalLabelPosition=bottom;labelPosition=center;align=center;html=1;fillColor=#CCCCCC;strokeColor=#6881B3;gradientColor=none;gradientDirection=north;strokeWidth=2;shape=mxgraph.networks.firewall;rounded=1;shadow=0;comic=0;labelBackgroundColor=#ffffff;" vertex="1" parent="1">
          <mxGeometry x="1900" y="1744" width="100" height="100" as="geometry" />
        </mxCell>
        <mxCell id="zIDfhM2YU5ujpkhZHymJ-276" style="edgeStyle=none;html=1;labelBackgroundColor=none;endArrow=none;strokeWidth=2;fontFamily=Verdana;fontSize=28;fontColor=#0066CC;rounded=0;strokeColor=#6881B3;exitX=1.02;exitY=0.42;exitDx=0;exitDy=0;exitPerimeter=0;entryX=0.16;entryY=0.55;entryDx=0;entryDy=0;entryPerimeter=0;" edge="1" parent="1" source="zIDfhM2YU5ujpkhZHymJ-275" target="zIDfhM2YU5ujpkhZHymJ-274">
          <mxGeometry relative="1" as="geometry">
            <mxPoint x="2079" y="1735" as="targetPoint" />
            <mxPoint x="2000" y="1835" as="sourcePoint" />
          </mxGeometry>
        </mxCell>
        <mxCell id="zIDfhM2YU5ujpkhZHymJ-277" style="edgeStyle=none;html=1;labelBackgroundColor=none;endArrow=none;strokeWidth=2;fontFamily=Verdana;fontSize=28;fontColor=#0066CC;rounded=0;strokeColor=#6881B3;exitX=1.008;exitY=0.587;exitDx=0;exitDy=0;exitPerimeter=0;entryX=0.16;entryY=0.55;entryDx=0;entryDy=0;entryPerimeter=0;" edge="1" parent="1" source="zIDfhM2YU5ujpkhZHymJ-275" target="zIDfhM2YU5ujpkhZHymJ-278">
          <mxGeometry relative="1" as="geometry">
            <mxPoint x="2046.1999999999998" y="1857.6" as="targetPoint" />
            <mxPoint x="1960" y="1840" as="sourcePoint" />
          </mxGeometry>
        </mxCell>
        <mxCell id="zIDfhM2YU5ujpkhZHymJ-278" value="&lt;b style=&quot;border-color: var(--border-color); color: rgb(0, 0, 102);&quot;&gt;&lt;a href=&quot;https://190.109.80.10/&quot; style=&quot;border-color: var(--border-color);&quot;&gt;WAN 2&lt;/a&gt;&lt;/b&gt;" style="ellipse;shape=cloud;whiteSpace=wrap;html=1;rounded=1;shadow=0;comic=0;strokeWidth=1;fontFamily=Verdana;fontSize=12;fillColor=#dae8fc;strokeColor=#6c8ebf;" vertex="1" parent="1">
          <mxGeometry x="2022" y="1815" width="100" height="60" as="geometry" />
        </mxCell>
        <mxCell id="zIDfhM2YU5ujpkhZHymJ-280" value="" style="rounded=1;arcSize=50;align=left;spacingLeft=5;strokeColor=#4C9AFF;html=1;strokeWidth=2;fontSize=12" vertex="1" parent="1">
          <mxGeometry x="940" y="2150" width="800" height="190" as="geometry" />
        </mxCell>
        <mxCell id="zIDfhM2YU5ujpkhZHymJ-281" value="&lt;font color=&quot;#000066&quot;&gt;&lt;span style=&quot;font-size: 58px;&quot;&gt;Filias ServiÃ§os&lt;/span&gt;&lt;/font&gt;" style="text;strokeColor=none;fillColor=none;html=1;fontSize=24;fontStyle=1;verticalAlign=middle;align=center;" vertex="1" parent="1">
          <mxGeometry x="1290" y="2225" width="100" height="40" as="geometry" />
        </mxCell>
        <mxCell id="zIDfhM2YU5ujpkhZHymJ-282" value="" style="shape=singleArrow;direction=south;whiteSpace=wrap;html=1;arrowWidth=0.26133463541667273;arrowSize=0.2900000000000006;strokeColor=#66B2FF;rotation=-180;" vertex="1" parent="1">
          <mxGeometry x="1310" y="2070" width="30" height="80" as="geometry" />
        </mxCell>
        <mxCell id="zIDfhM2YU5ujpkhZHymJ-302" value="" style="group" vertex="1" connectable="0" parent="1">
          <mxGeometry x="-460" y="480" width="930" height="850" as="geometry" />
        </mxCell>
        <mxCell id="zIDfhM2YU5ujpkhZHymJ-14" value="&lt;blockquote style=&quot;margin: 0 0 0 40px; border: none; padding: 0px;&quot;&gt;&lt;h4 style=&quot;&quot;&gt;&lt;br&gt;&lt;/h4&gt;&lt;/blockquote&gt;" style="whiteSpace=wrap;html=1;rounded=1;shadow=1;comic=0;strokeWidth=1;fontFamily=Verdana;fontSize=14;fillColor=#f5f5f5;strokeColor=none;verticalAlign=top;fontStyle=1;glass=0;align=left;" vertex="1" parent="zIDfhM2YU5ujpkhZHymJ-302">
          <mxGeometry x="119.66911764705883" y="302.88097043214555" width="690.6617647058823" height="547.1190295678545" as="geometry" />
        </mxCell>
        <mxCell id="zIDfhM2YU5ujpkhZHymJ-15" value="&lt;b style=&quot;border-color: var(--border-color); color: rgb(0, 0, 102);&quot;&gt;&lt;font size=&quot;1&quot; style=&quot;&quot;&gt;&lt;a style=&quot;font-size: 30px;&quot; href=&quot;http://201.49.114.90/&quot;&gt;WAN 1&lt;/a&gt;&lt;/font&gt;&lt;/b&gt;" style="ellipse;shape=cloud;whiteSpace=wrap;html=1;rounded=1;shadow=0;comic=0;strokeWidth=1;fontFamily=Verdana;fontSize=12;fillColor=#dae8fc;strokeColor=#6c8ebf;" vertex="1" parent="zIDfhM2YU5ujpkhZHymJ-302">
          <mxGeometry width="451.3235294117647" height="232.63836239575437" as="geometry" />
        </mxCell>
        <mxCell id="zIDfhM2YU5ujpkhZHymJ-16" value="&lt;font style=&quot;font-size: 30px;&quot;&gt;Fortgate&lt;/font&gt;" style="fontColor=#0066CC;verticalAlign=top;verticalLabelPosition=bottom;labelPosition=center;align=center;html=1;fillColor=#CCCCCC;strokeColor=#6881B3;gradientColor=none;gradientDirection=north;strokeWidth=2;shape=mxgraph.networks.firewall;rounded=1;shadow=0;comic=0;labelBackgroundColor=#ffffff;" vertex="1" parent="zIDfhM2YU5ujpkhZHymJ-302">
          <mxGeometry x="356.95588235294116" y="525.2084912812737" width="216.08823529411765" height="168.84003032600455" as="geometry" />
        </mxCell>
        <mxCell id="zIDfhM2YU5ujpkhZHymJ-109" value="&lt;b&gt;&lt;font style=&quot;font-size: 30px;&quot;&gt;000-Matriz&lt;/font&gt;&lt;/b&gt;" style="text;html=1;align=center;verticalAlign=middle;resizable=0;points=[];autosize=1;strokeColor=none;fillColor=none;" vertex="1" parent="zIDfhM2YU5ujpkhZHymJ-302">
          <mxGeometry x="359.7794117647059" y="317.2137983320697" width="170" height="50" as="geometry" />
        </mxCell>
        <mxCell id="zIDfhM2YU5ujpkhZHymJ-230" value="&lt;b style=&quot;border-color: var(--border-color); color: rgb(0, 0, 102);&quot;&gt;&lt;a href=&quot;https://190.109.80.10/&quot; style=&quot;border-color: var(--border-color);&quot;&gt;&lt;font style=&quot;font-size: 30px;&quot;&gt;WAN 2&lt;/font&gt;&lt;/a&gt;&lt;/b&gt;" style="ellipse;shape=cloud;whiteSpace=wrap;html=1;rounded=1;shadow=0;comic=0;strokeWidth=1;fontFamily=Verdana;fontSize=12;fillColor=#dae8fc;strokeColor=#6c8ebf;" vertex="1" parent="zIDfhM2YU5ujpkhZHymJ-302">
          <mxGeometry x="478.6764705882353" y="9.344200151630023" width="451.3235294117647" height="232.63836239575437" as="geometry" />
        </mxCell>
        <mxCell id="zIDfhM2YU5ujpkhZHymJ-232" style="edgeStyle=orthogonalEdgeStyle;rounded=1;orthogonalLoop=1;jettySize=auto;html=1;strokeColor=#3865ab;strokeWidth=7;shadow=0;endArrow=none;endFill=0;startArrow=none;startFill=0;exitX=0.493;exitY=0.952;exitDx=0;exitDy=0;exitPerimeter=0;entryX=0.006;entryY=0.242;entryDx=0;entryDy=0;entryPerimeter=0;" edge="1" parent="zIDfhM2YU5ujpkhZHymJ-302" source="zIDfhM2YU5ujpkhZHymJ-15" target="zIDfhM2YU5ujpkhZHymJ-16">
          <mxGeometry relative="1" as="geometry">
            <mxPoint x="423.97058823529414" y="283.8703563305534" as="sourcePoint" />
            <mxPoint x="287.20588235294116" y="567.0962850644427" as="targetPoint" />
            <Array as="points">
              <mxPoint x="222.9264705882353" y="567.0962850644427" />
              <mxPoint x="287.20588235294116" y="567.0962850644427" />
            </Array>
          </mxGeometry>
        </mxCell>
        <mxCell id="zIDfhM2YU5ujpkhZHymJ-300" style="edgeStyle=orthogonalEdgeStyle;rounded=1;orthogonalLoop=1;jettySize=auto;html=1;strokeColor=#3865ab;strokeWidth=7;shadow=0;endArrow=none;endFill=0;startArrow=none;startFill=0;entryX=1.008;entryY=0.328;entryDx=0;entryDy=0;entryPerimeter=0;exitX=0.545;exitY=0.949;exitDx=0;exitDy=0;exitPerimeter=0;" edge="1" parent="zIDfhM2YU5ujpkhZHymJ-302" source="zIDfhM2YU5ujpkhZHymJ-230" target="zIDfhM2YU5ujpkhZHymJ-16">
          <mxGeometry relative="1" as="geometry">
            <mxPoint x="724.8529411764706" y="231.9939347990902" as="sourcePoint" />
            <mxPoint x="772.6658823529413" y="447.23275208491276" as="targetPoint" />
            <Array as="points">
              <mxPoint x="724.8529411764706" y="576.1182714177407" />
              <mxPoint x="574.4117647058823" y="576.1182714177407" />
            </Array>
          </mxGeometry>
        </mxCell>
        <mxCell id="zIDfhM2YU5ujpkhZHymJ-303" value="" style="group" vertex="1" connectable="0" parent="1">
          <mxGeometry x="-1830" y="-1010" width="800" height="270" as="geometry" />
        </mxCell>
        <mxCell id="zIDfhM2YU5ujpkhZHymJ-243" value="" style="rounded=1;arcSize=50;align=left;spacingLeft=5;strokeColor=#4C9AFF;html=1;strokeWidth=2;fontSize=12" vertex="1" parent="zIDfhM2YU5ujpkhZHymJ-303">
          <mxGeometry width="800" height="190" as="geometry" />
        </mxCell>
        <mxCell id="zIDfhM2YU5ujpkhZHymJ-244" value="&lt;span style=&quot;font-size: 58px;&quot;&gt;&lt;font color=&quot;#000066&quot;&gt;Lojas&lt;/font&gt;&lt;/span&gt;" style="text;strokeColor=none;fillColor=none;html=1;fontSize=24;fontStyle=1;verticalAlign=middle;align=center;" vertex="1" parent="zIDfhM2YU5ujpkhZHymJ-303">
          <mxGeometry x="350" y="75" width="100" height="40" as="geometry" />
        </mxCell>
        <mxCell id="zIDfhM2YU5ujpkhZHymJ-279" value="" style="shape=singleArrow;direction=south;whiteSpace=wrap;html=1;arrowWidth=0.26133463541667273;arrowSize=0.2900000000000006;strokeColor=#66B2FF;" vertex="1" parent="zIDfhM2YU5ujpkhZHymJ-303">
          <mxGeometry x="360" y="190" width="30" height="80" as="geometry" />
        </mxCell>
        <mxCell id="zIDfhM2YU5ujpkhZHymJ-304" value="" style="group" vertex="1" connectable="0" parent="1">
          <mxGeometry x="-2470" y="-670" width="2011" height="2995" as="geometry" />
        </mxCell>
        <mxCell id="zIDfhM2YU5ujpkhZHymJ-2" value="&lt;font color=&quot;#000066&quot; style=&quot;font-size: 30px;&quot;&gt;006-Paulista&lt;/font&gt;" style="whiteSpace=wrap;html=1;rounded=1;shadow=1;comic=0;strokeWidth=1;fontFamily=Verdana;fontSize=14;fillColor=#f5f5f5;strokeColor=none;verticalAlign=top;fontStyle=1;glass=0;" vertex="1" parent="zIDfhM2YU5ujpkhZHymJ-304">
          <mxGeometry y="457.1315789473685" width="342.851263962375" height="321.1013645224172" as="geometry" />
        </mxCell>
        <mxCell id="zIDfhM2YU5ujpkhZHymJ-3" value="&lt;b style=&quot;border-color: var(--border-color); color: rgb(0, 0, 102);&quot;&gt;&lt;a href=&quot;https://187.103.74.249/&quot;&gt;WAN 1&lt;/a&gt;&lt;/b&gt;" style="ellipse;shape=cloud;whiteSpace=wrap;html=1;rounded=1;shadow=0;comic=0;strokeWidth=1;fontFamily=Verdana;fontSize=12;fillColor=#dae8fc;strokeColor=#6c8ebf;" vertex="1" parent="zIDfhM2YU5ujpkhZHymJ-304">
          <mxGeometry x="215.16872427983537" y="493.3284600389864" width="118.22457378012932" height="70.05847953216376" as="geometry" />
        </mxCell>
        <mxCell id="zIDfhM2YU5ujpkhZHymJ-4" value="Fortgate" style="fontColor=#0066CC;verticalAlign=top;verticalLabelPosition=bottom;labelPosition=center;align=center;html=1;fillColor=#CCCCCC;strokeColor=#6881B3;gradientColor=none;gradientDirection=north;strokeWidth=2;shape=mxgraph.networks.firewall;rounded=1;shadow=0;comic=0;labelBackgroundColor=#ffffff;" vertex="1" parent="zIDfhM2YU5ujpkhZHymJ-304">
          <mxGeometry x="70.9347442680776" y="537.6988304093568" width="118.22457378012932" height="116.76413255360626" as="geometry" />
        </mxCell>
        <mxCell id="zIDfhM2YU5ujpkhZHymJ-5" style="edgeStyle=none;html=1;labelBackgroundColor=none;endArrow=none;strokeWidth=2;fontFamily=Verdana;fontSize=28;fontColor=#0066CC;rounded=0;strokeColor=#6881B3;exitX=1.02;exitY=0.42;exitDx=0;exitDy=0;exitPerimeter=0;entryX=0.16;entryY=0.55;entryDx=0;entryDy=0;entryPerimeter=0;" edge="1" parent="zIDfhM2YU5ujpkhZHymJ-304" source="zIDfhM2YU5ujpkhZHymJ-4" target="zIDfhM2YU5ujpkhZHymJ-3">
          <mxGeometry relative="1" as="geometry">
            <mxPoint x="282.5567313345091" y="527.1900584795322" as="targetPoint" />
            <mxPoint x="189.15931804820693" y="643.9541910331385" as="sourcePoint" />
          </mxGeometry>
        </mxCell>
        <mxCell id="zIDfhM2YU5ujpkhZHymJ-6" style="edgeStyle=none;html=1;labelBackgroundColor=none;endArrow=none;strokeWidth=2;fontFamily=Verdana;fontSize=28;fontColor=#0066CC;rounded=0;strokeColor=#6881B3;exitX=1.008;exitY=0.587;exitDx=0;exitDy=0;exitPerimeter=0;entryX=0.16;entryY=0.55;entryDx=0;entryDy=0;entryPerimeter=0;" edge="1" parent="zIDfhM2YU5ujpkhZHymJ-304" source="zIDfhM2YU5ujpkhZHymJ-4" target="zIDfhM2YU5ujpkhZHymJ-7">
          <mxGeometry relative="1" as="geometry">
            <mxPoint x="243.77907113462672" y="670.3428849902535" as="targetPoint" />
            <mxPoint x="141.8694885361552" y="649.7923976608188" as="sourcePoint" />
          </mxGeometry>
        </mxCell>
        <mxCell id="zIDfhM2YU5ujpkhZHymJ-7" value="&lt;b style=&quot;border-color: var(--border-color); color: rgb(0, 0, 102);&quot;&gt;&lt;a style=&quot;border-color: var(--border-color);&quot; href=&quot;https://177.74.111.102/&quot;&gt;WAN 2&lt;/a&gt;&lt;/b&gt;" style="ellipse;shape=cloud;whiteSpace=wrap;html=1;rounded=1;shadow=0;comic=0;strokeWidth=1;fontFamily=Verdana;fontSize=12;fillColor=#dae8fc;strokeColor=#6c8ebf;" vertex="1" parent="zIDfhM2YU5ujpkhZHymJ-304">
          <mxGeometry x="215.16872427983537" y="620.6013645224173" width="118.22457378012932" height="70.05847953216376" as="geometry" />
        </mxCell>
        <mxCell id="zIDfhM2YU5ujpkhZHymJ-8" value="&lt;font color=&quot;#000066&quot; style=&quot;font-size: 25px;&quot;&gt;011-Gravata&lt;/font&gt;" style="whiteSpace=wrap;html=1;rounded=1;shadow=1;comic=0;strokeWidth=1;fontFamily=Verdana;fontSize=14;fillColor=#f5f5f5;strokeColor=none;verticalAlign=top;fontStyle=1;glass=0;" vertex="1" parent="zIDfhM2YU5ujpkhZHymJ-304">
          <mxGeometry y="899.0838206627682" width="342.851263962375" height="321.1013645224172" as="geometry" />
        </mxCell>
        <mxCell id="zIDfhM2YU5ujpkhZHymJ-9" value="&lt;b style=&quot;border-color: var(--border-color); color: rgb(0, 0, 102);&quot;&gt;&lt;a href=&quot;https://131.0.227.93/&quot;&gt;WAN 1&lt;/a&gt;&lt;/b&gt;" style="ellipse;shape=cloud;whiteSpace=wrap;html=1;rounded=1;shadow=0;comic=0;strokeWidth=1;fontFamily=Verdana;fontSize=12;fillColor=#dae8fc;strokeColor=#6c8ebf;" vertex="1" parent="zIDfhM2YU5ujpkhZHymJ-304">
          <mxGeometry x="215.16872427983537" y="935.2807017543861" width="118.22457378012932" height="70.05847953216376" as="geometry" />
        </mxCell>
        <mxCell id="zIDfhM2YU5ujpkhZHymJ-10" value="Fortgate" style="fontColor=#0066CC;verticalAlign=top;verticalLabelPosition=bottom;labelPosition=center;align=center;html=1;fillColor=#CCCCCC;strokeColor=#6881B3;gradientColor=none;gradientDirection=north;strokeWidth=2;shape=mxgraph.networks.firewall;rounded=1;shadow=0;comic=0;labelBackgroundColor=#ffffff;" vertex="1" parent="zIDfhM2YU5ujpkhZHymJ-304">
          <mxGeometry x="70.9347442680776" y="979.6510721247564" width="118.22457378012932" height="116.76413255360626" as="geometry" />
        </mxCell>
        <mxCell id="zIDfhM2YU5ujpkhZHymJ-11" style="edgeStyle=none;html=1;labelBackgroundColor=none;endArrow=none;strokeWidth=2;fontFamily=Verdana;fontSize=28;fontColor=#0066CC;rounded=0;strokeColor=#6881B3;exitX=1.02;exitY=0.42;exitDx=0;exitDy=0;exitPerimeter=0;entryX=0.16;entryY=0.55;entryDx=0;entryDy=0;entryPerimeter=0;" edge="1" parent="zIDfhM2YU5ujpkhZHymJ-304" source="zIDfhM2YU5ujpkhZHymJ-10" target="zIDfhM2YU5ujpkhZHymJ-9">
          <mxGeometry relative="1" as="geometry">
            <mxPoint x="282.5567313345091" y="969.1423001949319" as="targetPoint" />
            <mxPoint x="189.15931804820693" y="1085.9064327485382" as="sourcePoint" />
          </mxGeometry>
        </mxCell>
        <mxCell id="zIDfhM2YU5ujpkhZHymJ-12" style="edgeStyle=none;html=1;labelBackgroundColor=none;endArrow=none;strokeWidth=2;fontFamily=Verdana;fontSize=28;fontColor=#0066CC;rounded=0;strokeColor=#6881B3;exitX=1.008;exitY=0.587;exitDx=0;exitDy=0;exitPerimeter=0;entryX=0.16;entryY=0.55;entryDx=0;entryDy=0;entryPerimeter=0;" edge="1" parent="zIDfhM2YU5ujpkhZHymJ-304" source="zIDfhM2YU5ujpkhZHymJ-10" target="zIDfhM2YU5ujpkhZHymJ-13">
          <mxGeometry relative="1" as="geometry">
            <mxPoint x="243.77907113462672" y="1112.2951267056533" as="targetPoint" />
            <mxPoint x="141.8694885361552" y="1091.7446393762184" as="sourcePoint" />
          </mxGeometry>
        </mxCell>
        <mxCell id="zIDfhM2YU5ujpkhZHymJ-13" value="&lt;b style=&quot;border-color: var(--border-color); color: rgb(0, 0, 102);&quot;&gt;WAN 2&lt;/b&gt;" style="ellipse;shape=cloud;whiteSpace=wrap;html=1;rounded=1;shadow=0;comic=0;strokeWidth=1;fontFamily=Verdana;fontSize=12;fillColor=#dae8fc;strokeColor=#6c8ebf;" vertex="1" parent="zIDfhM2YU5ujpkhZHymJ-304">
          <mxGeometry x="215.16872427983537" y="1062.553606237817" width="118.22457378012932" height="70.05847953216376" as="geometry" />
        </mxCell>
        <mxCell id="zIDfhM2YU5ujpkhZHymJ-18" value="&lt;font color=&quot;#000066&quot; style=&quot;font-size: 25px;&quot;&gt;016-BeloJardim&lt;/font&gt;" style="whiteSpace=wrap;html=1;rounded=1;shadow=1;comic=0;strokeWidth=1;fontFamily=Verdana;fontSize=14;fillColor=#f5f5f5;strokeColor=none;verticalAlign=top;fontStyle=1;glass=0;" vertex="1" parent="zIDfhM2YU5ujpkhZHymJ-304">
          <mxGeometry y="1337.5331384015594" width="342.851263962375" height="321.1013645224172" as="geometry" />
        </mxCell>
        <mxCell id="zIDfhM2YU5ujpkhZHymJ-19" value="&lt;b style=&quot;border-color: var(--border-color); color: rgb(0, 0, 102);&quot;&gt;&lt;a href=&quot;https://177.36.13.69/&quot;&gt;WAN 1&lt;/a&gt;&lt;/b&gt;" style="ellipse;shape=cloud;whiteSpace=wrap;html=1;rounded=1;shadow=0;comic=0;strokeWidth=1;fontFamily=Verdana;fontSize=12;fillColor=#dae8fc;strokeColor=#6c8ebf;" vertex="1" parent="zIDfhM2YU5ujpkhZHymJ-304">
          <mxGeometry x="215.16872427983537" y="1395.3313840155947" width="118.22457378012932" height="70.05847953216376" as="geometry" />
        </mxCell>
        <mxCell id="zIDfhM2YU5ujpkhZHymJ-20" value="Fortgate" style="fontColor=#0066CC;verticalAlign=top;verticalLabelPosition=bottom;labelPosition=center;align=center;html=1;fillColor=#CCCCCC;strokeColor=#6881B3;gradientColor=none;gradientDirection=north;strokeWidth=2;shape=mxgraph.networks.firewall;rounded=1;shadow=0;comic=0;labelBackgroundColor=#ffffff;" vertex="1" parent="zIDfhM2YU5ujpkhZHymJ-304">
          <mxGeometry x="70.9347442680776" y="1439.7017543859652" width="118.22457378012932" height="116.76413255360626" as="geometry" />
        </mxCell>
        <mxCell id="zIDfhM2YU5ujpkhZHymJ-21" style="edgeStyle=none;html=1;labelBackgroundColor=none;endArrow=none;strokeWidth=2;fontFamily=Verdana;fontSize=28;fontColor=#0066CC;rounded=0;strokeColor=#6881B3;exitX=1.02;exitY=0.42;exitDx=0;exitDy=0;exitPerimeter=0;entryX=0.16;entryY=0.55;entryDx=0;entryDy=0;entryPerimeter=0;" edge="1" parent="zIDfhM2YU5ujpkhZHymJ-304" source="zIDfhM2YU5ujpkhZHymJ-20" target="zIDfhM2YU5ujpkhZHymJ-19">
          <mxGeometry relative="1" as="geometry">
            <mxPoint x="282.5567313345091" y="1429.1929824561405" as="targetPoint" />
            <mxPoint x="189.15931804820693" y="1545.9571150097468" as="sourcePoint" />
          </mxGeometry>
        </mxCell>
        <mxCell id="zIDfhM2YU5ujpkhZHymJ-22" style="edgeStyle=none;html=1;labelBackgroundColor=none;endArrow=none;strokeWidth=2;fontFamily=Verdana;fontSize=28;fontColor=#0066CC;rounded=0;strokeColor=#6881B3;exitX=1.008;exitY=0.587;exitDx=0;exitDy=0;exitPerimeter=0;entryX=0.16;entryY=0.55;entryDx=0;entryDy=0;entryPerimeter=0;" edge="1" parent="zIDfhM2YU5ujpkhZHymJ-304" source="zIDfhM2YU5ujpkhZHymJ-20" target="zIDfhM2YU5ujpkhZHymJ-23">
          <mxGeometry relative="1" as="geometry">
            <mxPoint x="243.77907113462672" y="1572.3458089668616" as="targetPoint" />
            <mxPoint x="141.8694885361552" y="1551.795321637427" as="sourcePoint" />
          </mxGeometry>
        </mxCell>
        <mxCell id="zIDfhM2YU5ujpkhZHymJ-23" value="&lt;b style=&quot;border-color: var(--border-color); color: rgb(0, 0, 102);&quot;&gt;&lt;a style=&quot;border-color: var(--border-color);&quot; href=&quot;https://179.127.33.44/&quot;&gt;WAN 2&lt;/a&gt;&lt;/b&gt;" style="ellipse;shape=cloud;whiteSpace=wrap;html=1;rounded=1;shadow=0;comic=0;strokeWidth=1;fontFamily=Verdana;fontSize=12;fillColor=#dae8fc;strokeColor=#6c8ebf;" vertex="1" parent="zIDfhM2YU5ujpkhZHymJ-304">
          <mxGeometry x="215.16872427983537" y="1522.6042884990256" width="118.22457378012932" height="70.05847953216376" as="geometry" />
        </mxCell>
        <mxCell id="zIDfhM2YU5ujpkhZHymJ-24" value="&lt;font color=&quot;#000066&quot; style=&quot;font-size: 25px;&quot;&gt;021-Carpina II&lt;/font&gt;" style="whiteSpace=wrap;html=1;rounded=1;shadow=1;comic=0;strokeWidth=1;fontFamily=Verdana;fontSize=14;fillColor=#f5f5f5;strokeColor=none;verticalAlign=top;fontStyle=1;glass=0;" vertex="1" parent="zIDfhM2YU5ujpkhZHymJ-304">
          <mxGeometry y="1794.664717348928" width="342.851263962375" height="321.1013645224172" as="geometry" />
        </mxCell>
        <mxCell id="zIDfhM2YU5ujpkhZHymJ-25" value="&lt;b style=&quot;border-color: var(--border-color); color: rgb(0, 0, 102);&quot;&gt;&lt;a href=&quot;https://177.221.36.45/&quot;&gt;WAN 1&lt;/a&gt;&lt;/b&gt;" style="ellipse;shape=cloud;whiteSpace=wrap;html=1;rounded=1;shadow=0;comic=0;strokeWidth=1;fontFamily=Verdana;fontSize=12;fillColor=#dae8fc;strokeColor=#6c8ebf;" vertex="1" parent="zIDfhM2YU5ujpkhZHymJ-304">
          <mxGeometry x="215.16872427983537" y="1830.8615984405462" width="118.22457378012932" height="70.05847953216376" as="geometry" />
        </mxCell>
        <mxCell id="zIDfhM2YU5ujpkhZHymJ-26" value="Fortgate" style="fontColor=#0066CC;verticalAlign=top;verticalLabelPosition=bottom;labelPosition=center;align=center;html=1;fillColor=#CCCCCC;strokeColor=#6881B3;gradientColor=none;gradientDirection=north;strokeWidth=2;shape=mxgraph.networks.firewall;rounded=1;shadow=0;comic=0;labelBackgroundColor=#ffffff;" vertex="1" parent="zIDfhM2YU5ujpkhZHymJ-304">
          <mxGeometry x="70.9347442680776" y="1875.2319688109164" width="118.22457378012932" height="116.76413255360626" as="geometry" />
        </mxCell>
        <mxCell id="zIDfhM2YU5ujpkhZHymJ-27" style="edgeStyle=none;html=1;labelBackgroundColor=none;endArrow=none;strokeWidth=2;fontFamily=Verdana;fontSize=28;fontColor=#0066CC;rounded=0;strokeColor=#6881B3;exitX=1.02;exitY=0.42;exitDx=0;exitDy=0;exitPerimeter=0;entryX=0.16;entryY=0.55;entryDx=0;entryDy=0;entryPerimeter=0;" edge="1" parent="zIDfhM2YU5ujpkhZHymJ-304" source="zIDfhM2YU5ujpkhZHymJ-26" target="zIDfhM2YU5ujpkhZHymJ-25">
          <mxGeometry relative="1" as="geometry">
            <mxPoint x="282.5567313345091" y="1864.7231968810918" as="targetPoint" />
            <mxPoint x="189.15931804820693" y="1981.4873294346983" as="sourcePoint" />
          </mxGeometry>
        </mxCell>
        <mxCell id="zIDfhM2YU5ujpkhZHymJ-28" style="edgeStyle=none;html=1;labelBackgroundColor=none;endArrow=none;strokeWidth=2;fontFamily=Verdana;fontSize=28;fontColor=#0066CC;rounded=0;strokeColor=#6881B3;exitX=1.008;exitY=0.587;exitDx=0;exitDy=0;exitPerimeter=0;entryX=0.16;entryY=0.55;entryDx=0;entryDy=0;entryPerimeter=0;" edge="1" parent="zIDfhM2YU5ujpkhZHymJ-304" source="zIDfhM2YU5ujpkhZHymJ-26" target="zIDfhM2YU5ujpkhZHymJ-29">
          <mxGeometry relative="1" as="geometry">
            <mxPoint x="243.77907113462672" y="2007.876023391813" as="targetPoint" />
            <mxPoint x="141.8694885361552" y="1987.3255360623784" as="sourcePoint" />
          </mxGeometry>
        </mxCell>
        <mxCell id="zIDfhM2YU5ujpkhZHymJ-29" value="&lt;b style=&quot;border-color: var(--border-color); color: rgb(0, 0, 102);&quot;&gt;&lt;a href=&quot;https://201.71.61.167/&quot; style=&quot;border-color: var(--border-color);&quot;&gt;WAN 2&lt;/a&gt;&lt;/b&gt;" style="ellipse;shape=cloud;whiteSpace=wrap;html=1;rounded=1;shadow=0;comic=0;strokeWidth=1;fontFamily=Verdana;fontSize=12;fillColor=#dae8fc;strokeColor=#6c8ebf;" vertex="1" parent="zIDfhM2YU5ujpkhZHymJ-304">
          <mxGeometry x="215.16872427983537" y="1958.134502923977" width="118.22457378012932" height="70.05847953216376" as="geometry" />
        </mxCell>
        <mxCell id="zIDfhM2YU5ujpkhZHymJ-30" value="&lt;font color=&quot;#000066&quot; style=&quot;font-size: 30px;&quot;&gt;007-Goiana&lt;/font&gt;" style="whiteSpace=wrap;html=1;rounded=1;shadow=1;comic=0;strokeWidth=1;fontFamily=Verdana;fontSize=14;fillColor=#f5f5f5;strokeColor=none;verticalAlign=top;fontStyle=1;glass=0;" vertex="1" parent="zIDfhM2YU5ujpkhZHymJ-304">
          <mxGeometry x="413.78600823045264" y="457.1315789473685" width="342.851263962375" height="321.1013645224172" as="geometry" />
        </mxCell>
        <mxCell id="zIDfhM2YU5ujpkhZHymJ-31" value="&lt;b style=&quot;border-color: var(--border-color); color: rgb(0, 0, 102);&quot;&gt;&lt;a href=&quot;https://179.124.143.17/&quot;&gt;WAN 1&lt;/a&gt;&lt;/b&gt;" style="ellipse;shape=cloud;whiteSpace=wrap;html=1;rounded=1;shadow=0;comic=0;strokeWidth=1;fontFamily=Verdana;fontSize=12;fillColor=#dae8fc;strokeColor=#6c8ebf;" vertex="1" parent="zIDfhM2YU5ujpkhZHymJ-304">
          <mxGeometry x="628.954732510288" y="493.3284600389864" width="118.22457378012932" height="70.05847953216376" as="geometry" />
        </mxCell>
        <mxCell id="zIDfhM2YU5ujpkhZHymJ-32" value="Fortgate" style="fontColor=#0066CC;verticalAlign=top;verticalLabelPosition=bottom;labelPosition=center;align=center;html=1;fillColor=#CCCCCC;strokeColor=#6881B3;gradientColor=none;gradientDirection=north;strokeWidth=2;shape=mxgraph.networks.firewall;rounded=1;shadow=0;comic=0;labelBackgroundColor=#ffffff;" vertex="1" parent="zIDfhM2YU5ujpkhZHymJ-304">
          <mxGeometry x="484.7207524985302" y="537.6988304093568" width="118.22457378012932" height="116.76413255360626" as="geometry" />
        </mxCell>
        <mxCell id="zIDfhM2YU5ujpkhZHymJ-33" style="edgeStyle=none;html=1;labelBackgroundColor=none;endArrow=none;strokeWidth=2;fontFamily=Verdana;fontSize=28;fontColor=#0066CC;rounded=0;strokeColor=#6881B3;exitX=1.02;exitY=0.42;exitDx=0;exitDy=0;exitPerimeter=0;entryX=0.16;entryY=0.55;entryDx=0;entryDy=0;entryPerimeter=0;" edge="1" parent="zIDfhM2YU5ujpkhZHymJ-304" source="zIDfhM2YU5ujpkhZHymJ-32" target="zIDfhM2YU5ujpkhZHymJ-31">
          <mxGeometry relative="1" as="geometry">
            <mxPoint x="696.3427395649617" y="527.1900584795322" as="targetPoint" />
            <mxPoint x="602.9453262786595" y="643.9541910331385" as="sourcePoint" />
          </mxGeometry>
        </mxCell>
        <mxCell id="zIDfhM2YU5ujpkhZHymJ-34" style="edgeStyle=none;html=1;labelBackgroundColor=none;endArrow=none;strokeWidth=2;fontFamily=Verdana;fontSize=28;fontColor=#0066CC;rounded=0;strokeColor=#6881B3;exitX=1.008;exitY=0.587;exitDx=0;exitDy=0;exitPerimeter=0;entryX=0.16;entryY=0.55;entryDx=0;entryDy=0;entryPerimeter=0;" edge="1" parent="zIDfhM2YU5ujpkhZHymJ-304" source="zIDfhM2YU5ujpkhZHymJ-32" target="zIDfhM2YU5ujpkhZHymJ-35">
          <mxGeometry relative="1" as="geometry">
            <mxPoint x="657.5650793650793" y="670.3428849902535" as="targetPoint" />
            <mxPoint x="555.6554967666078" y="649.7923976608188" as="sourcePoint" />
          </mxGeometry>
        </mxCell>
        <mxCell id="zIDfhM2YU5ujpkhZHymJ-35" value="&lt;b style=&quot;border-color: var(--border-color); color: rgb(0, 0, 102);&quot;&gt;&lt;a style=&quot;border-color: var(--border-color);&quot; href=&quot;http://138.185.162.61/&quot;&gt;WAN 2&lt;/a&gt;&lt;/b&gt;" style="ellipse;shape=cloud;whiteSpace=wrap;html=1;rounded=1;shadow=0;comic=0;strokeWidth=1;fontFamily=Verdana;fontSize=12;fillColor=#dae8fc;strokeColor=#6c8ebf;" vertex="1" parent="zIDfhM2YU5ujpkhZHymJ-304">
          <mxGeometry x="628.954732510288" y="620.6013645224173" width="118.22457378012932" height="70.05847953216376" as="geometry" />
        </mxCell>
        <mxCell id="zIDfhM2YU5ujpkhZHymJ-36" value="&lt;font color=&quot;#000066&quot; style=&quot;font-size: 25px;&quot;&gt;012-Limoeiro&lt;/font&gt;" style="whiteSpace=wrap;html=1;rounded=1;shadow=1;comic=0;strokeWidth=1;fontFamily=Verdana;fontSize=14;fillColor=#f5f5f5;strokeColor=none;verticalAlign=top;fontStyle=1;glass=0;" vertex="1" parent="zIDfhM2YU5ujpkhZHymJ-304">
          <mxGeometry x="413.78600823045264" y="899.0838206627682" width="342.851263962375" height="321.1013645224172" as="geometry" />
        </mxCell>
        <mxCell id="zIDfhM2YU5ujpkhZHymJ-37" value="&lt;b style=&quot;border-color: var(--border-color); color: rgb(0, 0, 102);&quot;&gt;&lt;a href=&quot;https://179.124.141.129/&quot;&gt;WAN 1&lt;/a&gt;&lt;/b&gt;" style="ellipse;shape=cloud;whiteSpace=wrap;html=1;rounded=1;shadow=0;comic=0;strokeWidth=1;fontFamily=Verdana;fontSize=12;fillColor=#dae8fc;strokeColor=#6c8ebf;" vertex="1" parent="zIDfhM2YU5ujpkhZHymJ-304">
          <mxGeometry x="628.954732510288" y="935.2807017543861" width="118.22457378012932" height="70.05847953216376" as="geometry" />
        </mxCell>
        <mxCell id="zIDfhM2YU5ujpkhZHymJ-38" value="Fortgate" style="fontColor=#0066CC;verticalAlign=top;verticalLabelPosition=bottom;labelPosition=center;align=center;html=1;fillColor=#CCCCCC;strokeColor=#6881B3;gradientColor=none;gradientDirection=north;strokeWidth=2;shape=mxgraph.networks.firewall;rounded=1;shadow=0;comic=0;labelBackgroundColor=#ffffff;" vertex="1" parent="zIDfhM2YU5ujpkhZHymJ-304">
          <mxGeometry x="484.7207524985302" y="979.6510721247564" width="118.22457378012932" height="116.76413255360626" as="geometry" />
        </mxCell>
        <mxCell id="zIDfhM2YU5ujpkhZHymJ-39" style="edgeStyle=none;html=1;labelBackgroundColor=none;endArrow=none;strokeWidth=2;fontFamily=Verdana;fontSize=28;fontColor=#0066CC;rounded=0;strokeColor=#6881B3;exitX=1.02;exitY=0.42;exitDx=0;exitDy=0;exitPerimeter=0;entryX=0.16;entryY=0.55;entryDx=0;entryDy=0;entryPerimeter=0;" edge="1" parent="zIDfhM2YU5ujpkhZHymJ-304" source="zIDfhM2YU5ujpkhZHymJ-38" target="zIDfhM2YU5ujpkhZHymJ-37">
          <mxGeometry relative="1" as="geometry">
            <mxPoint x="696.3427395649617" y="969.1423001949319" as="targetPoint" />
            <mxPoint x="602.9453262786595" y="1085.9064327485382" as="sourcePoint" />
          </mxGeometry>
        </mxCell>
        <mxCell id="zIDfhM2YU5ujpkhZHymJ-40" style="edgeStyle=none;html=1;labelBackgroundColor=none;endArrow=none;strokeWidth=2;fontFamily=Verdana;fontSize=28;fontColor=#0066CC;rounded=0;strokeColor=#6881B3;exitX=1.008;exitY=0.587;exitDx=0;exitDy=0;exitPerimeter=0;entryX=0.16;entryY=0.55;entryDx=0;entryDy=0;entryPerimeter=0;" edge="1" parent="zIDfhM2YU5ujpkhZHymJ-304" source="zIDfhM2YU5ujpkhZHymJ-38" target="zIDfhM2YU5ujpkhZHymJ-41">
          <mxGeometry relative="1" as="geometry">
            <mxPoint x="657.5650793650793" y="1112.2951267056533" as="targetPoint" />
            <mxPoint x="555.6554967666078" y="1091.7446393762184" as="sourcePoint" />
          </mxGeometry>
        </mxCell>
        <mxCell id="zIDfhM2YU5ujpkhZHymJ-41" value="&lt;b style=&quot;border-color: var(--border-color); color: rgb(0, 0, 102);&quot;&gt;&lt;a style=&quot;border-color: var(--border-color);&quot; href=&quot;https://186.208.231.52/&quot;&gt;WAN 2&lt;/a&gt;&lt;/b&gt;" style="ellipse;shape=cloud;whiteSpace=wrap;html=1;rounded=1;shadow=0;comic=0;strokeWidth=1;fontFamily=Verdana;fontSize=12;fillColor=#dae8fc;strokeColor=#6c8ebf;" vertex="1" parent="zIDfhM2YU5ujpkhZHymJ-304">
          <mxGeometry x="628.954732510288" y="1062.553606237817" width="118.22457378012932" height="70.05847953216376" as="geometry" />
        </mxCell>
        <mxCell id="zIDfhM2YU5ujpkhZHymJ-42" value="&lt;font color=&quot;#000066&quot; style=&quot;font-size: 25px;&quot;&gt;017-Muribeca&lt;/font&gt;" style="whiteSpace=wrap;html=1;rounded=1;shadow=1;comic=0;strokeWidth=1;fontFamily=Verdana;fontSize=14;fillColor=#f5f5f5;strokeColor=none;verticalAlign=top;fontStyle=1;glass=0;" vertex="1" parent="zIDfhM2YU5ujpkhZHymJ-304">
          <mxGeometry x="413.78600823045264" y="1337.5331384015594" width="342.851263962375" height="321.1013645224172" as="geometry" />
        </mxCell>
        <mxCell id="zIDfhM2YU5ujpkhZHymJ-43" value="&lt;b style=&quot;border-color: var(--border-color); color: rgb(0, 0, 102);&quot;&gt;&lt;a href=&quot;https://187.103.66.89/&quot;&gt;WAN 1&lt;/a&gt;&lt;/b&gt;" style="ellipse;shape=cloud;whiteSpace=wrap;html=1;rounded=1;shadow=0;comic=0;strokeWidth=1;fontFamily=Verdana;fontSize=12;fillColor=#dae8fc;strokeColor=#6c8ebf;" vertex="1" parent="zIDfhM2YU5ujpkhZHymJ-304">
          <mxGeometry x="628.954732510288" y="1395.3313840155947" width="118.22457378012932" height="70.05847953216376" as="geometry" />
        </mxCell>
        <mxCell id="zIDfhM2YU5ujpkhZHymJ-44" value="Fortgate" style="fontColor=#0066CC;verticalAlign=top;verticalLabelPosition=bottom;labelPosition=center;align=center;html=1;fillColor=#CCCCCC;strokeColor=#6881B3;gradientColor=none;gradientDirection=north;strokeWidth=2;shape=mxgraph.networks.firewall;rounded=1;shadow=0;comic=0;labelBackgroundColor=#ffffff;" vertex="1" parent="zIDfhM2YU5ujpkhZHymJ-304">
          <mxGeometry x="484.7207524985302" y="1439.7017543859652" width="118.22457378012932" height="116.76413255360626" as="geometry" />
        </mxCell>
        <mxCell id="zIDfhM2YU5ujpkhZHymJ-45" style="edgeStyle=none;html=1;labelBackgroundColor=none;endArrow=none;strokeWidth=2;fontFamily=Verdana;fontSize=28;fontColor=#0066CC;rounded=0;strokeColor=#6881B3;exitX=1.02;exitY=0.42;exitDx=0;exitDy=0;exitPerimeter=0;entryX=0.16;entryY=0.55;entryDx=0;entryDy=0;entryPerimeter=0;" edge="1" parent="zIDfhM2YU5ujpkhZHymJ-304" source="zIDfhM2YU5ujpkhZHymJ-44" target="zIDfhM2YU5ujpkhZHymJ-43">
          <mxGeometry relative="1" as="geometry">
            <mxPoint x="696.3427395649617" y="1429.1929824561405" as="targetPoint" />
            <mxPoint x="602.9453262786595" y="1545.9571150097468" as="sourcePoint" />
          </mxGeometry>
        </mxCell>
        <mxCell id="zIDfhM2YU5ujpkhZHymJ-46" style="edgeStyle=none;html=1;labelBackgroundColor=none;endArrow=none;strokeWidth=2;fontFamily=Verdana;fontSize=28;fontColor=#0066CC;rounded=0;strokeColor=#6881B3;exitX=1.008;exitY=0.587;exitDx=0;exitDy=0;exitPerimeter=0;entryX=0.16;entryY=0.55;entryDx=0;entryDy=0;entryPerimeter=0;" edge="1" parent="zIDfhM2YU5ujpkhZHymJ-304" source="zIDfhM2YU5ujpkhZHymJ-44" target="zIDfhM2YU5ujpkhZHymJ-47">
          <mxGeometry relative="1" as="geometry">
            <mxPoint x="657.5650793650793" y="1572.3458089668616" as="targetPoint" />
            <mxPoint x="555.6554967666078" y="1551.795321637427" as="sourcePoint" />
          </mxGeometry>
        </mxCell>
        <mxCell id="zIDfhM2YU5ujpkhZHymJ-47" value="&lt;b style=&quot;border-color: var(--border-color); color: rgb(0, 0, 102);&quot;&gt;&lt;a style=&quot;border-color: var(--border-color);&quot; href=&quot;https://201.182.174.226/&quot;&gt;WAN 2&lt;/a&gt;&lt;/b&gt;" style="ellipse;shape=cloud;whiteSpace=wrap;html=1;rounded=1;shadow=0;comic=0;strokeWidth=1;fontFamily=Verdana;fontSize=12;fillColor=#dae8fc;strokeColor=#6c8ebf;" vertex="1" parent="zIDfhM2YU5ujpkhZHymJ-304">
          <mxGeometry x="628.954732510288" y="1522.6042884990256" width="118.22457378012932" height="70.05847953216376" as="geometry" />
        </mxCell>
        <mxCell id="zIDfhM2YU5ujpkhZHymJ-48" value="&lt;font style=&quot;font-size: 25px;&quot; color=&quot;#000066&quot;&gt;022-Barreiros&lt;/font&gt;" style="whiteSpace=wrap;html=1;rounded=1;shadow=1;comic=0;strokeWidth=1;fontFamily=Verdana;fontSize=14;fillColor=#f5f5f5;strokeColor=none;verticalAlign=top;fontStyle=1;glass=0;" vertex="1" parent="zIDfhM2YU5ujpkhZHymJ-304">
          <mxGeometry x="413.78600823045264" y="1794.664717348928" width="342.851263962375" height="321.1013645224172" as="geometry" />
        </mxCell>
        <mxCell id="zIDfhM2YU5ujpkhZHymJ-49" value="&lt;b style=&quot;border-color: var(--border-color); color: rgb(0, 0, 102);&quot;&gt;&lt;a href=&quot;https://179.124.139.37/&quot;&gt;WAN 1&lt;/a&gt;&lt;/b&gt;" style="ellipse;shape=cloud;whiteSpace=wrap;html=1;rounded=1;shadow=0;comic=0;strokeWidth=1;fontFamily=Verdana;fontSize=12;fillColor=#dae8fc;strokeColor=#6c8ebf;" vertex="1" parent="zIDfhM2YU5ujpkhZHymJ-304">
          <mxGeometry x="628.954732510288" y="1830.8615984405462" width="118.22457378012932" height="70.05847953216376" as="geometry" />
        </mxCell>
        <mxCell id="zIDfhM2YU5ujpkhZHymJ-50" value="Fortgate" style="fontColor=#0066CC;verticalAlign=top;verticalLabelPosition=bottom;labelPosition=center;align=center;html=1;fillColor=#CCCCCC;strokeColor=#6881B3;gradientColor=none;gradientDirection=north;strokeWidth=2;shape=mxgraph.networks.firewall;rounded=1;shadow=0;comic=0;labelBackgroundColor=#ffffff;" vertex="1" parent="zIDfhM2YU5ujpkhZHymJ-304">
          <mxGeometry x="484.7207524985302" y="1875.2319688109164" width="118.22457378012932" height="116.76413255360626" as="geometry" />
        </mxCell>
        <mxCell id="zIDfhM2YU5ujpkhZHymJ-51" style="edgeStyle=none;html=1;labelBackgroundColor=none;endArrow=none;strokeWidth=2;fontFamily=Verdana;fontSize=28;fontColor=#0066CC;rounded=0;strokeColor=#6881B3;exitX=1.02;exitY=0.42;exitDx=0;exitDy=0;exitPerimeter=0;entryX=0.16;entryY=0.55;entryDx=0;entryDy=0;entryPerimeter=0;" edge="1" parent="zIDfhM2YU5ujpkhZHymJ-304" source="zIDfhM2YU5ujpkhZHymJ-50" target="zIDfhM2YU5ujpkhZHymJ-49">
          <mxGeometry relative="1" as="geometry">
            <mxPoint x="696.3427395649617" y="1864.7231968810918" as="targetPoint" />
            <mxPoint x="602.9453262786595" y="1981.4873294346983" as="sourcePoint" />
          </mxGeometry>
        </mxCell>
        <mxCell id="zIDfhM2YU5ujpkhZHymJ-52" style="edgeStyle=none;html=1;labelBackgroundColor=none;endArrow=none;strokeWidth=2;fontFamily=Verdana;fontSize=28;fontColor=#0066CC;rounded=0;strokeColor=#6881B3;exitX=1.008;exitY=0.587;exitDx=0;exitDy=0;exitPerimeter=0;entryX=0.16;entryY=0.55;entryDx=0;entryDy=0;entryPerimeter=0;" edge="1" parent="zIDfhM2YU5ujpkhZHymJ-304" source="zIDfhM2YU5ujpkhZHymJ-50" target="zIDfhM2YU5ujpkhZHymJ-53">
          <mxGeometry relative="1" as="geometry">
            <mxPoint x="657.5650793650793" y="2007.876023391813" as="targetPoint" />
            <mxPoint x="555.6554967666078" y="1987.3255360623784" as="sourcePoint" />
          </mxGeometry>
        </mxCell>
        <mxCell id="zIDfhM2YU5ujpkhZHymJ-53" value="&lt;b style=&quot;border-color: var(--border-color); color: rgb(0, 0, 102);&quot;&gt;&lt;a href=&quot;https://190.109.80.10/&quot; style=&quot;border-color: var(--border-color);&quot;&gt;WAN 2&lt;/a&gt;&lt;/b&gt;" style="ellipse;shape=cloud;whiteSpace=wrap;html=1;rounded=1;shadow=0;comic=0;strokeWidth=1;fontFamily=Verdana;fontSize=12;fillColor=#dae8fc;strokeColor=#6c8ebf;" vertex="1" parent="zIDfhM2YU5ujpkhZHymJ-304">
          <mxGeometry x="628.954732510288" y="1958.134502923977" width="118.22457378012932" height="70.05847953216376" as="geometry" />
        </mxCell>
        <mxCell id="zIDfhM2YU5ujpkhZHymJ-54" value="&lt;font style=&quot;font-size: 30px;&quot; color=&quot;#000066&quot;&gt;008-DoisIrmÃ£o&lt;/font&gt;" style="whiteSpace=wrap;html=1;rounded=1;shadow=1;comic=0;strokeWidth=1;fontFamily=Verdana;fontSize=14;fillColor=#f5f5f5;strokeColor=none;verticalAlign=top;fontStyle=1;glass=0;" vertex="1" parent="zIDfhM2YU5ujpkhZHymJ-304">
          <mxGeometry x="839.3944738389182" y="457.1315789473685" width="342.851263962375" height="321.1013645224172" as="geometry" />
        </mxCell>
        <mxCell id="zIDfhM2YU5ujpkhZHymJ-55" value="&lt;b style=&quot;border-color: var(--border-color); color: rgb(0, 0, 102);&quot;&gt;&lt;a href=&quot;https://187.103.74.41/&quot;&gt;WAN 1&lt;/a&gt;&lt;/b&gt;" style="ellipse;shape=cloud;whiteSpace=wrap;html=1;rounded=1;shadow=0;comic=0;strokeWidth=1;fontFamily=Verdana;fontSize=12;fillColor=#dae8fc;strokeColor=#6c8ebf;" vertex="1" parent="zIDfhM2YU5ujpkhZHymJ-304">
          <mxGeometry x="1054.5631981187535" y="493.3284600389864" width="118.22457378012932" height="70.05847953216376" as="geometry" />
        </mxCell>
        <mxCell id="zIDfhM2YU5ujpkhZHymJ-56" value="Fortgate" style="fontColor=#0066CC;verticalAlign=top;verticalLabelPosition=bottom;labelPosition=center;align=center;html=1;fillColor=#CCCCCC;strokeColor=#6881B3;gradientColor=none;gradientDirection=north;strokeWidth=2;shape=mxgraph.networks.firewall;rounded=1;shadow=0;comic=0;labelBackgroundColor=#ffffff;" vertex="1" parent="zIDfhM2YU5ujpkhZHymJ-304">
          <mxGeometry x="910.3292181069958" y="537.6988304093568" width="118.22457378012932" height="116.76413255360626" as="geometry" />
        </mxCell>
        <mxCell id="zIDfhM2YU5ujpkhZHymJ-57" style="edgeStyle=none;html=1;labelBackgroundColor=none;endArrow=none;strokeWidth=2;fontFamily=Verdana;fontSize=28;fontColor=#0066CC;rounded=0;strokeColor=#6881B3;exitX=1.02;exitY=0.42;exitDx=0;exitDy=0;exitPerimeter=0;entryX=0.16;entryY=0.55;entryDx=0;entryDy=0;entryPerimeter=0;" edge="1" parent="zIDfhM2YU5ujpkhZHymJ-304" source="zIDfhM2YU5ujpkhZHymJ-56" target="zIDfhM2YU5ujpkhZHymJ-55">
          <mxGeometry relative="1" as="geometry">
            <mxPoint x="1121.951205173427" y="527.1900584795322" as="targetPoint" />
            <mxPoint x="1028.553791887125" y="643.9541910331385" as="sourcePoint" />
          </mxGeometry>
        </mxCell>
        <mxCell id="zIDfhM2YU5ujpkhZHymJ-58" style="edgeStyle=none;html=1;labelBackgroundColor=none;endArrow=none;strokeWidth=2;fontFamily=Verdana;fontSize=28;fontColor=#0066CC;rounded=0;strokeColor=#6881B3;exitX=1.008;exitY=0.587;exitDx=0;exitDy=0;exitPerimeter=0;entryX=0.16;entryY=0.55;entryDx=0;entryDy=0;entryPerimeter=0;" edge="1" parent="zIDfhM2YU5ujpkhZHymJ-304" source="zIDfhM2YU5ujpkhZHymJ-56" target="zIDfhM2YU5ujpkhZHymJ-59">
          <mxGeometry relative="1" as="geometry">
            <mxPoint x="1083.173544973545" y="670.3428849902535" as="targetPoint" />
            <mxPoint x="981.2639623750733" y="649.7923976608188" as="sourcePoint" />
          </mxGeometry>
        </mxCell>
        <mxCell id="zIDfhM2YU5ujpkhZHymJ-59" value="&lt;b style=&quot;border-color: var(--border-color); color: rgb(0, 0, 102);&quot;&gt;&lt;a style=&quot;border-color: var(--border-color);&quot; href=&quot;https://179.189.245.234/&quot;&gt;WAN 2&lt;/a&gt;&lt;/b&gt;" style="ellipse;shape=cloud;whiteSpace=wrap;html=1;rounded=1;shadow=0;comic=0;strokeWidth=1;fontFamily=Verdana;fontSize=12;fillColor=#dae8fc;strokeColor=#6c8ebf;" vertex="1" parent="zIDfhM2YU5ujpkhZHymJ-304">
          <mxGeometry x="1054.5631981187535" y="620.6013645224173" width="118.22457378012932" height="70.05847953216376" as="geometry" />
        </mxCell>
        <mxCell id="zIDfhM2YU5ujpkhZHymJ-60" value="&lt;font color=&quot;#000066&quot; style=&quot;font-size: 25px;&quot;&gt;013-Escada&lt;/font&gt;" style="whiteSpace=wrap;html=1;rounded=1;shadow=1;comic=0;strokeWidth=1;fontFamily=Verdana;fontSize=14;fillColor=#f5f5f5;strokeColor=none;verticalAlign=top;fontStyle=1;glass=0;" vertex="1" parent="zIDfhM2YU5ujpkhZHymJ-304">
          <mxGeometry x="839.3944738389182" y="899.0838206627682" width="342.851263962375" height="321.1013645224172" as="geometry" />
        </mxCell>
        <mxCell id="zIDfhM2YU5ujpkhZHymJ-61" value="&lt;b style=&quot;border-color: var(--border-color); color: rgb(0, 0, 102);&quot;&gt;&lt;a href=&quot;https://177.36.14.29/&quot;&gt;WAN 1&lt;/a&gt;&lt;/b&gt;" style="ellipse;shape=cloud;whiteSpace=wrap;html=1;rounded=1;shadow=0;comic=0;strokeWidth=1;fontFamily=Verdana;fontSize=12;fillColor=#dae8fc;strokeColor=#6c8ebf;" vertex="1" parent="zIDfhM2YU5ujpkhZHymJ-304">
          <mxGeometry x="1054.5631981187535" y="935.2807017543861" width="118.22457378012932" height="70.05847953216376" as="geometry" />
        </mxCell>
        <mxCell id="zIDfhM2YU5ujpkhZHymJ-62" value="Fortgate" style="fontColor=#0066CC;verticalAlign=top;verticalLabelPosition=bottom;labelPosition=center;align=center;html=1;fillColor=#CCCCCC;strokeColor=#6881B3;gradientColor=none;gradientDirection=north;strokeWidth=2;shape=mxgraph.networks.firewall;rounded=1;shadow=0;comic=0;labelBackgroundColor=#ffffff;" vertex="1" parent="zIDfhM2YU5ujpkhZHymJ-304">
          <mxGeometry x="910.3292181069958" y="979.6510721247564" width="118.22457378012932" height="116.76413255360626" as="geometry" />
        </mxCell>
        <mxCell id="zIDfhM2YU5ujpkhZHymJ-63" style="edgeStyle=none;html=1;labelBackgroundColor=none;endArrow=none;strokeWidth=2;fontFamily=Verdana;fontSize=28;fontColor=#0066CC;rounded=0;strokeColor=#6881B3;exitX=1.02;exitY=0.42;exitDx=0;exitDy=0;exitPerimeter=0;entryX=0.16;entryY=0.55;entryDx=0;entryDy=0;entryPerimeter=0;" edge="1" parent="zIDfhM2YU5ujpkhZHymJ-304" source="zIDfhM2YU5ujpkhZHymJ-62" target="zIDfhM2YU5ujpkhZHymJ-61">
          <mxGeometry relative="1" as="geometry">
            <mxPoint x="1121.951205173427" y="969.1423001949319" as="targetPoint" />
            <mxPoint x="1028.553791887125" y="1085.9064327485382" as="sourcePoint" />
          </mxGeometry>
        </mxCell>
        <mxCell id="zIDfhM2YU5ujpkhZHymJ-64" style="edgeStyle=none;html=1;labelBackgroundColor=none;endArrow=none;strokeWidth=2;fontFamily=Verdana;fontSize=28;fontColor=#0066CC;rounded=0;strokeColor=#6881B3;exitX=1.008;exitY=0.587;exitDx=0;exitDy=0;exitPerimeter=0;entryX=0.16;entryY=0.55;entryDx=0;entryDy=0;entryPerimeter=0;" edge="1" parent="zIDfhM2YU5ujpkhZHymJ-304" source="zIDfhM2YU5ujpkhZHymJ-62" target="zIDfhM2YU5ujpkhZHymJ-65">
          <mxGeometry relative="1" as="geometry">
            <mxPoint x="1083.173544973545" y="1112.2951267056533" as="targetPoint" />
            <mxPoint x="981.2639623750733" y="1091.7446393762184" as="sourcePoint" />
          </mxGeometry>
        </mxCell>
        <mxCell id="zIDfhM2YU5ujpkhZHymJ-65" value="&lt;b style=&quot;border-color: var(--border-color); color: rgb(0, 0, 102);&quot;&gt;WAN 2&lt;/b&gt;" style="ellipse;shape=cloud;whiteSpace=wrap;html=1;rounded=1;shadow=0;comic=0;strokeWidth=1;fontFamily=Verdana;fontSize=12;fillColor=#dae8fc;strokeColor=#6c8ebf;" vertex="1" parent="zIDfhM2YU5ujpkhZHymJ-304">
          <mxGeometry x="1054.5631981187535" y="1062.553606237817" width="118.22457378012932" height="70.05847953216376" as="geometry" />
        </mxCell>
        <mxCell id="zIDfhM2YU5ujpkhZHymJ-66" value="&lt;font color=&quot;#000066&quot; style=&quot;font-size: 25px;&quot;&gt;018-Afogados&lt;/font&gt;" style="whiteSpace=wrap;html=1;rounded=1;shadow=1;comic=0;strokeWidth=1;fontFamily=Verdana;fontSize=14;fillColor=#f5f5f5;strokeColor=none;verticalAlign=top;fontStyle=1;glass=0;" vertex="1" parent="zIDfhM2YU5ujpkhZHymJ-304">
          <mxGeometry x="839.3944738389182" y="1337.5331384015594" width="342.851263962375" height="321.1013645224172" as="geometry" />
        </mxCell>
        <mxCell id="zIDfhM2YU5ujpkhZHymJ-67" value="&lt;b style=&quot;border-color: var(--border-color); color: rgb(0, 0, 102);&quot;&gt;&lt;a href=&quot;https://179.124.137.133/&quot;&gt;WAN 1&lt;/a&gt;&lt;/b&gt;" style="ellipse;shape=cloud;whiteSpace=wrap;html=1;rounded=1;shadow=0;comic=0;strokeWidth=1;fontFamily=Verdana;fontSize=12;fillColor=#dae8fc;strokeColor=#6c8ebf;" vertex="1" parent="zIDfhM2YU5ujpkhZHymJ-304">
          <mxGeometry x="1054.5631981187535" y="1395.3313840155947" width="118.22457378012932" height="70.05847953216376" as="geometry" />
        </mxCell>
        <mxCell id="zIDfhM2YU5ujpkhZHymJ-68" value="Fortgate" style="fontColor=#0066CC;verticalAlign=top;verticalLabelPosition=bottom;labelPosition=center;align=center;html=1;fillColor=#CCCCCC;strokeColor=#6881B3;gradientColor=none;gradientDirection=north;strokeWidth=2;shape=mxgraph.networks.firewall;rounded=1;shadow=0;comic=0;labelBackgroundColor=#ffffff;" vertex="1" parent="zIDfhM2YU5ujpkhZHymJ-304">
          <mxGeometry x="910.3292181069958" y="1439.7017543859652" width="118.22457378012932" height="116.76413255360626" as="geometry" />
        </mxCell>
        <mxCell id="zIDfhM2YU5ujpkhZHymJ-69" style="edgeStyle=none;html=1;labelBackgroundColor=none;endArrow=none;strokeWidth=2;fontFamily=Verdana;fontSize=28;fontColor=#0066CC;rounded=0;strokeColor=#6881B3;exitX=1.02;exitY=0.42;exitDx=0;exitDy=0;exitPerimeter=0;entryX=0.16;entryY=0.55;entryDx=0;entryDy=0;entryPerimeter=0;" edge="1" parent="zIDfhM2YU5ujpkhZHymJ-304" source="zIDfhM2YU5ujpkhZHymJ-68" target="zIDfhM2YU5ujpkhZHymJ-67">
          <mxGeometry relative="1" as="geometry">
            <mxPoint x="1121.951205173427" y="1429.1929824561405" as="targetPoint" />
            <mxPoint x="1028.553791887125" y="1545.9571150097468" as="sourcePoint" />
          </mxGeometry>
        </mxCell>
        <mxCell id="zIDfhM2YU5ujpkhZHymJ-70" style="edgeStyle=none;html=1;labelBackgroundColor=none;endArrow=none;strokeWidth=2;fontFamily=Verdana;fontSize=28;fontColor=#0066CC;rounded=0;strokeColor=#6881B3;exitX=1.008;exitY=0.587;exitDx=0;exitDy=0;exitPerimeter=0;entryX=0.16;entryY=0.55;entryDx=0;entryDy=0;entryPerimeter=0;" edge="1" parent="zIDfhM2YU5ujpkhZHymJ-304" source="zIDfhM2YU5ujpkhZHymJ-68" target="zIDfhM2YU5ujpkhZHymJ-71">
          <mxGeometry relative="1" as="geometry">
            <mxPoint x="1083.173544973545" y="1572.3458089668616" as="targetPoint" />
            <mxPoint x="981.2639623750733" y="1551.795321637427" as="sourcePoint" />
          </mxGeometry>
        </mxCell>
        <mxCell id="zIDfhM2YU5ujpkhZHymJ-71" value="&lt;b style=&quot;border-color: var(--border-color); color: rgb(0, 0, 102);&quot;&gt;&lt;a style=&quot;border-color: var(--border-color);&quot; href=&quot;https://45.176.243.172/&quot;&gt;WAN 2&lt;/a&gt;&lt;/b&gt;" style="ellipse;shape=cloud;whiteSpace=wrap;html=1;rounded=1;shadow=0;comic=0;strokeWidth=1;fontFamily=Verdana;fontSize=12;fillColor=#dae8fc;strokeColor=#6c8ebf;" vertex="1" parent="zIDfhM2YU5ujpkhZHymJ-304">
          <mxGeometry x="1054.5631981187535" y="1522.6042884990256" width="118.22457378012932" height="70.05847953216376" as="geometry" />
        </mxCell>
        <mxCell id="zIDfhM2YU5ujpkhZHymJ-72" value="&lt;font color=&quot;#000066&quot; style=&quot;font-size: 25px;&quot;&gt;023-PedrasFogo&lt;/font&gt;" style="whiteSpace=wrap;html=1;rounded=1;shadow=1;comic=0;strokeWidth=1;fontFamily=Verdana;fontSize=25;fillColor=#f5f5f5;strokeColor=none;verticalAlign=top;fontStyle=1;glass=0;" vertex="1" parent="zIDfhM2YU5ujpkhZHymJ-304">
          <mxGeometry x="839.3944738389182" y="1794.664717348928" width="342.851263962375" height="321.1013645224172" as="geometry" />
        </mxCell>
        <mxCell id="zIDfhM2YU5ujpkhZHymJ-73" value="&lt;b style=&quot;border-color: var(--border-color); color: rgb(0, 0, 102);&quot;&gt;WAN 1&lt;/b&gt;" style="ellipse;shape=cloud;whiteSpace=wrap;html=1;rounded=1;shadow=0;comic=0;strokeWidth=1;fontFamily=Verdana;fontSize=12;fillColor=#dae8fc;strokeColor=#6c8ebf;" vertex="1" parent="zIDfhM2YU5ujpkhZHymJ-304">
          <mxGeometry x="1054.5631981187535" y="1830.8615984405462" width="118.22457378012932" height="70.05847953216376" as="geometry" />
        </mxCell>
        <mxCell id="zIDfhM2YU5ujpkhZHymJ-74" value="Fortgate" style="fontColor=#0066CC;verticalAlign=top;verticalLabelPosition=bottom;labelPosition=center;align=center;html=1;fillColor=#CCCCCC;strokeColor=#6881B3;gradientColor=none;gradientDirection=north;strokeWidth=2;shape=mxgraph.networks.firewall;rounded=1;shadow=0;comic=0;labelBackgroundColor=#ffffff;" vertex="1" parent="zIDfhM2YU5ujpkhZHymJ-304">
          <mxGeometry x="910.3292181069958" y="1875.2319688109164" width="118.22457378012932" height="116.76413255360626" as="geometry" />
        </mxCell>
        <mxCell id="zIDfhM2YU5ujpkhZHymJ-75" style="edgeStyle=none;html=1;labelBackgroundColor=none;endArrow=none;strokeWidth=2;fontFamily=Verdana;fontSize=28;fontColor=#0066CC;rounded=0;strokeColor=#6881B3;exitX=1.02;exitY=0.42;exitDx=0;exitDy=0;exitPerimeter=0;entryX=0.16;entryY=0.55;entryDx=0;entryDy=0;entryPerimeter=0;" edge="1" parent="zIDfhM2YU5ujpkhZHymJ-304" source="zIDfhM2YU5ujpkhZHymJ-74" target="zIDfhM2YU5ujpkhZHymJ-73">
          <mxGeometry relative="1" as="geometry">
            <mxPoint x="1121.951205173427" y="1864.7231968810918" as="targetPoint" />
            <mxPoint x="1028.553791887125" y="1981.4873294346983" as="sourcePoint" />
          </mxGeometry>
        </mxCell>
        <mxCell id="zIDfhM2YU5ujpkhZHymJ-76" style="edgeStyle=none;html=1;labelBackgroundColor=none;endArrow=none;strokeWidth=2;fontFamily=Verdana;fontSize=28;fontColor=#0066CC;rounded=0;strokeColor=#6881B3;exitX=1.008;exitY=0.587;exitDx=0;exitDy=0;exitPerimeter=0;entryX=0.16;entryY=0.55;entryDx=0;entryDy=0;entryPerimeter=0;" edge="1" parent="zIDfhM2YU5ujpkhZHymJ-304" source="zIDfhM2YU5ujpkhZHymJ-74" target="zIDfhM2YU5ujpkhZHymJ-77">
          <mxGeometry relative="1" as="geometry">
            <mxPoint x="1083.173544973545" y="2007.876023391813" as="targetPoint" />
            <mxPoint x="981.2639623750733" y="1987.3255360623784" as="sourcePoint" />
          </mxGeometry>
        </mxCell>
        <mxCell id="zIDfhM2YU5ujpkhZHymJ-77" value="&lt;b style=&quot;border-color: var(--border-color); color: rgb(0, 0, 102);&quot;&gt;&lt;a href=&quot;https://190.109.80.10/&quot; style=&quot;border-color: var(--border-color);&quot;&gt;WAN 2&lt;/a&gt;&lt;/b&gt;" style="ellipse;shape=cloud;whiteSpace=wrap;html=1;rounded=1;shadow=0;comic=0;strokeWidth=1;fontFamily=Verdana;fontSize=12;fillColor=#dae8fc;strokeColor=#6c8ebf;" vertex="1" parent="zIDfhM2YU5ujpkhZHymJ-304">
          <mxGeometry x="1054.5631981187535" y="1958.134502923977" width="118.22457378012932" height="70.05847953216376" as="geometry" />
        </mxCell>
        <mxCell id="zIDfhM2YU5ujpkhZHymJ-78" value="&lt;font color=&quot;#000066&quot; style=&quot;font-size: 25px;&quot;&gt;009-Surubim&lt;/font&gt;" style="whiteSpace=wrap;html=1;rounded=1;shadow=1;comic=0;strokeWidth=1;fontFamily=Verdana;fontSize=14;fillColor=#f5f5f5;strokeColor=none;verticalAlign=top;fontStyle=1;glass=0;" vertex="1" parent="zIDfhM2YU5ujpkhZHymJ-304">
          <mxGeometry x="1253.1804820693708" y="457.1315789473685" width="342.851263962375" height="321.1013645224172" as="geometry" />
        </mxCell>
        <mxCell id="zIDfhM2YU5ujpkhZHymJ-79" value="&lt;b style=&quot;border-color: var(--border-color); color: rgb(0, 0, 102);&quot;&gt;&lt;a href=&quot;https://187.103.79.49/&quot;&gt;WAN 1&lt;/a&gt;&lt;/b&gt;" style="ellipse;shape=cloud;whiteSpace=wrap;html=1;rounded=1;shadow=0;comic=0;strokeWidth=1;fontFamily=Verdana;fontSize=12;fillColor=#dae8fc;strokeColor=#6c8ebf;" vertex="1" parent="zIDfhM2YU5ujpkhZHymJ-304">
          <mxGeometry x="1468.349206349206" y="493.3284600389864" width="118.22457378012932" height="70.05847953216376" as="geometry" />
        </mxCell>
        <mxCell id="zIDfhM2YU5ujpkhZHymJ-80" value="Fortgate" style="fontColor=#0066CC;verticalAlign=top;verticalLabelPosition=bottom;labelPosition=center;align=center;html=1;fillColor=#CCCCCC;strokeColor=#6881B3;gradientColor=none;gradientDirection=north;strokeWidth=2;shape=mxgraph.networks.firewall;rounded=1;shadow=0;comic=0;labelBackgroundColor=#ffffff;" vertex="1" parent="zIDfhM2YU5ujpkhZHymJ-304">
          <mxGeometry x="1324.1152263374483" y="537.6988304093568" width="118.22457378012932" height="116.76413255360626" as="geometry" />
        </mxCell>
        <mxCell id="zIDfhM2YU5ujpkhZHymJ-81" style="edgeStyle=none;html=1;labelBackgroundColor=none;endArrow=none;strokeWidth=2;fontFamily=Verdana;fontSize=28;fontColor=#0066CC;rounded=0;strokeColor=#6881B3;exitX=1.02;exitY=0.42;exitDx=0;exitDy=0;exitPerimeter=0;entryX=0.16;entryY=0.55;entryDx=0;entryDy=0;entryPerimeter=0;" edge="1" parent="zIDfhM2YU5ujpkhZHymJ-304" source="zIDfhM2YU5ujpkhZHymJ-80" target="zIDfhM2YU5ujpkhZHymJ-79">
          <mxGeometry relative="1" as="geometry">
            <mxPoint x="1535.7372134038799" y="527.1900584795322" as="targetPoint" />
            <mxPoint x="1442.3398001175779" y="643.9541910331385" as="sourcePoint" />
          </mxGeometry>
        </mxCell>
        <mxCell id="zIDfhM2YU5ujpkhZHymJ-82" style="edgeStyle=none;html=1;labelBackgroundColor=none;endArrow=none;strokeWidth=2;fontFamily=Verdana;fontSize=28;fontColor=#0066CC;rounded=0;strokeColor=#6881B3;exitX=1.008;exitY=0.587;exitDx=0;exitDy=0;exitPerimeter=0;entryX=0.16;entryY=0.55;entryDx=0;entryDy=0;entryPerimeter=0;" edge="1" parent="zIDfhM2YU5ujpkhZHymJ-304" source="zIDfhM2YU5ujpkhZHymJ-80" target="zIDfhM2YU5ujpkhZHymJ-83">
          <mxGeometry relative="1" as="geometry">
            <mxPoint x="1496.9595532039975" y="670.3428849902535" as="targetPoint" />
            <mxPoint x="1395.049970605526" y="649.7923976608188" as="sourcePoint" />
          </mxGeometry>
        </mxCell>
        <mxCell id="zIDfhM2YU5ujpkhZHymJ-83" value="&lt;b style=&quot;border-color: var(--border-color); color: rgb(0, 0, 102);&quot;&gt;&lt;a href=&quot;https://190.109.80.10/&quot; style=&quot;border-color: var(--border-color);&quot;&gt;WAN 2&lt;/a&gt;&lt;/b&gt;" style="ellipse;shape=cloud;whiteSpace=wrap;html=1;rounded=1;shadow=0;comic=0;strokeWidth=1;fontFamily=Verdana;fontSize=12;fillColor=#dae8fc;strokeColor=#6c8ebf;" vertex="1" parent="zIDfhM2YU5ujpkhZHymJ-304">
          <mxGeometry x="1468.349206349206" y="620.6013645224173" width="118.22457378012932" height="70.05847953216376" as="geometry" />
        </mxCell>
        <mxCell id="zIDfhM2YU5ujpkhZHymJ-84" value="&lt;font style=&quot;font-size: 25px;&quot; color=&quot;#000066&quot;&gt;014-Cabo&lt;/font&gt;" style="whiteSpace=wrap;html=1;rounded=1;shadow=1;comic=0;strokeWidth=1;fontFamily=Verdana;fontSize=14;fillColor=#f5f5f5;strokeColor=none;verticalAlign=top;fontStyle=1;glass=0;" vertex="1" parent="zIDfhM2YU5ujpkhZHymJ-304">
          <mxGeometry x="1253.1804820693708" y="899.0838206627682" width="342.851263962375" height="321.1013645224172" as="geometry" />
        </mxCell>
        <mxCell id="zIDfhM2YU5ujpkhZHymJ-85" value="&lt;b style=&quot;border-color: var(--border-color); color: rgb(0, 0, 102);&quot;&gt;&lt;a href=&quot;https://177.221.46.5/&quot;&gt;WAN 1&lt;/a&gt;&lt;/b&gt;" style="ellipse;shape=cloud;whiteSpace=wrap;html=1;rounded=1;shadow=0;comic=0;strokeWidth=1;fontFamily=Verdana;fontSize=12;fillColor=#dae8fc;strokeColor=#6c8ebf;" vertex="1" parent="zIDfhM2YU5ujpkhZHymJ-304">
          <mxGeometry x="1468.349206349206" y="935.2807017543861" width="118.22457378012932" height="70.05847953216376" as="geometry" />
        </mxCell>
        <mxCell id="zIDfhM2YU5ujpkhZHymJ-86" value="Fortgate" style="fontColor=#0066CC;verticalAlign=top;verticalLabelPosition=bottom;labelPosition=center;align=center;html=1;fillColor=#CCCCCC;strokeColor=#6881B3;gradientColor=none;gradientDirection=north;strokeWidth=2;shape=mxgraph.networks.firewall;rounded=1;shadow=0;comic=0;labelBackgroundColor=#ffffff;" vertex="1" parent="zIDfhM2YU5ujpkhZHymJ-304">
          <mxGeometry x="1324.1152263374483" y="979.6510721247564" width="118.22457378012932" height="116.76413255360626" as="geometry" />
        </mxCell>
        <mxCell id="zIDfhM2YU5ujpkhZHymJ-87" style="edgeStyle=none;html=1;labelBackgroundColor=none;endArrow=none;strokeWidth=2;fontFamily=Verdana;fontSize=28;fontColor=#0066CC;rounded=0;strokeColor=#6881B3;exitX=1.02;exitY=0.42;exitDx=0;exitDy=0;exitPerimeter=0;entryX=0.16;entryY=0.55;entryDx=0;entryDy=0;entryPerimeter=0;" edge="1" parent="zIDfhM2YU5ujpkhZHymJ-304" source="zIDfhM2YU5ujpkhZHymJ-86" target="zIDfhM2YU5ujpkhZHymJ-85">
          <mxGeometry relative="1" as="geometry">
            <mxPoint x="1535.7372134038799" y="969.1423001949319" as="targetPoint" />
            <mxPoint x="1442.3398001175779" y="1085.9064327485382" as="sourcePoint" />
          </mxGeometry>
        </mxCell>
        <mxCell id="zIDfhM2YU5ujpkhZHymJ-88" style="edgeStyle=none;html=1;labelBackgroundColor=none;endArrow=none;strokeWidth=2;fontFamily=Verdana;fontSize=28;fontColor=#0066CC;rounded=0;strokeColor=#6881B3;exitX=1.008;exitY=0.587;exitDx=0;exitDy=0;exitPerimeter=0;entryX=0.16;entryY=0.55;entryDx=0;entryDy=0;entryPerimeter=0;" edge="1" parent="zIDfhM2YU5ujpkhZHymJ-304" source="zIDfhM2YU5ujpkhZHymJ-86" target="zIDfhM2YU5ujpkhZHymJ-89">
          <mxGeometry relative="1" as="geometry">
            <mxPoint x="1496.9595532039975" y="1112.2951267056533" as="targetPoint" />
            <mxPoint x="1395.049970605526" y="1091.7446393762184" as="sourcePoint" />
          </mxGeometry>
        </mxCell>
        <mxCell id="zIDfhM2YU5ujpkhZHymJ-89" value="&lt;b style=&quot;border-color: var(--border-color); color: rgb(0, 0, 102);&quot;&gt;&lt;a href=&quot;https://190.109.80.10/&quot; style=&quot;border-color: var(--border-color);&quot;&gt;WAN 2&lt;/a&gt;&lt;/b&gt;" style="ellipse;shape=cloud;whiteSpace=wrap;html=1;rounded=1;shadow=0;comic=0;strokeWidth=1;fontFamily=Verdana;fontSize=12;fillColor=#dae8fc;strokeColor=#6c8ebf;" vertex="1" parent="zIDfhM2YU5ujpkhZHymJ-304">
          <mxGeometry x="1468.349206349206" y="1062.553606237817" width="118.22457378012932" height="70.05847953216376" as="geometry" />
        </mxCell>
        <mxCell id="zIDfhM2YU5ujpkhZHymJ-90" value="&lt;font style=&quot;font-size: 25px;&quot; color=&quot;#000066&quot;&gt;019-Bezerros&lt;/font&gt;" style="whiteSpace=wrap;html=1;rounded=1;shadow=1;comic=0;strokeWidth=1;fontFamily=Verdana;fontSize=14;fillColor=#f5f5f5;strokeColor=none;verticalAlign=top;fontStyle=1;glass=0;" vertex="1" parent="zIDfhM2YU5ujpkhZHymJ-304">
          <mxGeometry x="1253.1804820693708" y="1337.5331384015594" width="342.851263962375" height="321.1013645224172" as="geometry" />
        </mxCell>
        <mxCell id="zIDfhM2YU5ujpkhZHymJ-91" value="&lt;b style=&quot;border-color: var(--border-color); color: rgb(0, 0, 102);&quot;&gt;&lt;a href=&quot;https://177.221.46.89/&quot;&gt;WAN 1&lt;/a&gt;&lt;/b&gt;" style="ellipse;shape=cloud;whiteSpace=wrap;html=1;rounded=1;shadow=0;comic=0;strokeWidth=1;fontFamily=Verdana;fontSize=12;fillColor=#dae8fc;strokeColor=#6c8ebf;" vertex="1" parent="zIDfhM2YU5ujpkhZHymJ-304">
          <mxGeometry x="1468.349206349206" y="1395.3313840155947" width="118.22457378012932" height="70.05847953216376" as="geometry" />
        </mxCell>
        <mxCell id="zIDfhM2YU5ujpkhZHymJ-92" value="Fortgate" style="fontColor=#0066CC;verticalAlign=top;verticalLabelPosition=bottom;labelPosition=center;align=center;html=1;fillColor=#CCCCCC;strokeColor=#6881B3;gradientColor=none;gradientDirection=north;strokeWidth=2;shape=mxgraph.networks.firewall;rounded=1;shadow=0;comic=0;labelBackgroundColor=#ffffff;" vertex="1" parent="zIDfhM2YU5ujpkhZHymJ-304">
          <mxGeometry x="1324.1152263374483" y="1439.7017543859652" width="118.22457378012932" height="116.76413255360626" as="geometry" />
        </mxCell>
        <mxCell id="zIDfhM2YU5ujpkhZHymJ-93" style="edgeStyle=none;html=1;labelBackgroundColor=none;endArrow=none;strokeWidth=2;fontFamily=Verdana;fontSize=28;fontColor=#0066CC;rounded=0;strokeColor=#6881B3;exitX=1.02;exitY=0.42;exitDx=0;exitDy=0;exitPerimeter=0;entryX=0.16;entryY=0.55;entryDx=0;entryDy=0;entryPerimeter=0;" edge="1" parent="zIDfhM2YU5ujpkhZHymJ-304" source="zIDfhM2YU5ujpkhZHymJ-92" target="zIDfhM2YU5ujpkhZHymJ-91">
          <mxGeometry relative="1" as="geometry">
            <mxPoint x="1535.7372134038799" y="1429.1929824561405" as="targetPoint" />
            <mxPoint x="1442.3398001175779" y="1545.9571150097468" as="sourcePoint" />
          </mxGeometry>
        </mxCell>
        <mxCell id="zIDfhM2YU5ujpkhZHymJ-94" style="edgeStyle=none;html=1;labelBackgroundColor=none;endArrow=none;strokeWidth=2;fontFamily=Verdana;fontSize=28;fontColor=#0066CC;rounded=0;strokeColor=#6881B3;exitX=1.008;exitY=0.587;exitDx=0;exitDy=0;exitPerimeter=0;entryX=0.16;entryY=0.55;entryDx=0;entryDy=0;entryPerimeter=0;" edge="1" parent="zIDfhM2YU5ujpkhZHymJ-304" source="zIDfhM2YU5ujpkhZHymJ-92" target="zIDfhM2YU5ujpkhZHymJ-95">
          <mxGeometry relative="1" as="geometry">
            <mxPoint x="1496.9595532039975" y="1572.3458089668616" as="targetPoint" />
            <mxPoint x="1395.049970605526" y="1551.795321637427" as="sourcePoint" />
          </mxGeometry>
        </mxCell>
        <mxCell id="zIDfhM2YU5ujpkhZHymJ-95" value="&lt;b style=&quot;border-color: var(--border-color); color: rgb(0, 0, 102);&quot;&gt;&lt;a style=&quot;border-color: var(--border-color);&quot; href=&quot;https://186.208.231.86/&quot;&gt;WAN 2&lt;/a&gt;&lt;/b&gt;" style="ellipse;shape=cloud;whiteSpace=wrap;html=1;rounded=1;shadow=0;comic=0;strokeWidth=1;fontFamily=Verdana;fontSize=12;fillColor=#dae8fc;strokeColor=#6c8ebf;" vertex="1" parent="zIDfhM2YU5ujpkhZHymJ-304">
          <mxGeometry x="1468.349206349206" y="1522.6042884990256" width="118.22457378012932" height="70.05847953216376" as="geometry" />
        </mxCell>
        <mxCell id="zIDfhM2YU5ujpkhZHymJ-96" value="&lt;font style=&quot;font-size: 25px;&quot; color=&quot;#000066&quot;&gt;024-Dois Unidos&lt;/font&gt;" style="whiteSpace=wrap;html=1;rounded=1;shadow=1;comic=0;strokeWidth=1;fontFamily=Verdana;fontSize=14;fillColor=#f5f5f5;strokeColor=none;verticalAlign=top;fontStyle=1;glass=0;" vertex="1" parent="zIDfhM2YU5ujpkhZHymJ-304">
          <mxGeometry x="1253.1804820693708" y="1794.664717348928" width="342.851263962375" height="321.1013645224172" as="geometry" />
        </mxCell>
        <mxCell id="zIDfhM2YU5ujpkhZHymJ-97" value="&lt;b style=&quot;border-color: var(--border-color); color: rgb(0, 0, 102);&quot;&gt;WAN 1&lt;/b&gt;" style="ellipse;shape=cloud;whiteSpace=wrap;html=1;rounded=1;shadow=0;comic=0;strokeWidth=1;fontFamily=Verdana;fontSize=12;fillColor=#dae8fc;strokeColor=#6c8ebf;" vertex="1" parent="zIDfhM2YU5ujpkhZHymJ-304">
          <mxGeometry x="1468.349206349206" y="1830.8615984405462" width="118.22457378012932" height="70.05847953216376" as="geometry" />
        </mxCell>
        <mxCell id="zIDfhM2YU5ujpkhZHymJ-98" value="Fortgate" style="fontColor=#0066CC;verticalAlign=top;verticalLabelPosition=bottom;labelPosition=center;align=center;html=1;fillColor=#CCCCCC;strokeColor=#6881B3;gradientColor=none;gradientDirection=north;strokeWidth=2;shape=mxgraph.networks.firewall;rounded=1;shadow=0;comic=0;labelBackgroundColor=#ffffff;" vertex="1" parent="zIDfhM2YU5ujpkhZHymJ-304">
          <mxGeometry x="1324.1152263374483" y="1875.2319688109164" width="118.22457378012932" height="116.76413255360626" as="geometry" />
        </mxCell>
        <mxCell id="zIDfhM2YU5ujpkhZHymJ-99" style="edgeStyle=none;html=1;labelBackgroundColor=none;endArrow=none;strokeWidth=2;fontFamily=Verdana;fontSize=28;fontColor=#0066CC;rounded=0;strokeColor=#6881B3;exitX=1.02;exitY=0.42;exitDx=0;exitDy=0;exitPerimeter=0;entryX=0.16;entryY=0.55;entryDx=0;entryDy=0;entryPerimeter=0;" edge="1" parent="zIDfhM2YU5ujpkhZHymJ-304" source="zIDfhM2YU5ujpkhZHymJ-98" target="zIDfhM2YU5ujpkhZHymJ-97">
          <mxGeometry relative="1" as="geometry">
            <mxPoint x="1535.7372134038799" y="1864.7231968810918" as="targetPoint" />
            <mxPoint x="1442.3398001175779" y="1981.4873294346983" as="sourcePoint" />
          </mxGeometry>
        </mxCell>
        <mxCell id="zIDfhM2YU5ujpkhZHymJ-100" style="edgeStyle=none;html=1;labelBackgroundColor=none;endArrow=none;strokeWidth=2;fontFamily=Verdana;fontSize=28;fontColor=#0066CC;rounded=0;strokeColor=#6881B3;exitX=1.008;exitY=0.587;exitDx=0;exitDy=0;exitPerimeter=0;entryX=0.16;entryY=0.55;entryDx=0;entryDy=0;entryPerimeter=0;" edge="1" parent="zIDfhM2YU5ujpkhZHymJ-304" source="zIDfhM2YU5ujpkhZHymJ-98" target="zIDfhM2YU5ujpkhZHymJ-101">
          <mxGeometry relative="1" as="geometry">
            <mxPoint x="1496.9595532039975" y="2007.876023391813" as="targetPoint" />
            <mxPoint x="1395.049970605526" y="1987.3255360623784" as="sourcePoint" />
          </mxGeometry>
        </mxCell>
        <mxCell id="zIDfhM2YU5ujpkhZHymJ-101" value="&lt;b style=&quot;border-color: var(--border-color); color: rgb(0, 0, 102);&quot;&gt;&lt;a href=&quot;https://190.109.80.10/&quot; style=&quot;border-color: var(--border-color);&quot;&gt;WAN 2&lt;/a&gt;&lt;/b&gt;" style="ellipse;shape=cloud;whiteSpace=wrap;html=1;rounded=1;shadow=0;comic=0;strokeWidth=1;fontFamily=Verdana;fontSize=12;fillColor=#dae8fc;strokeColor=#6c8ebf;" vertex="1" parent="zIDfhM2YU5ujpkhZHymJ-304">
          <mxGeometry x="1468.349206349206" y="1958.134502923977" width="118.22457378012932" height="70.05847953216376" as="geometry" />
        </mxCell>
        <mxCell id="zIDfhM2YU5ujpkhZHymJ-110" value="&lt;font style=&quot;font-size: 25px;&quot; color=&quot;#000066&quot;&gt;010-SÃ£oLourenÃ§o&lt;/font&gt;" style="whiteSpace=wrap;html=1;rounded=1;shadow=1;comic=0;strokeWidth=1;fontFamily=Verdana;fontSize=14;fillColor=#f5f5f5;strokeColor=none;verticalAlign=top;fontStyle=1;glass=0;" vertex="1" parent="zIDfhM2YU5ujpkhZHymJ-304">
          <mxGeometry x="1655.1440329218105" y="457.1315789473685" width="342.851263962375" height="321.1013645224172" as="geometry" />
        </mxCell>
        <mxCell id="zIDfhM2YU5ujpkhZHymJ-111" value="&lt;b style=&quot;border-color: var(--border-color); color: rgb(0, 0, 102);&quot;&gt;&lt;a href=&quot;https://177.221.34.161/&quot;&gt;WAN 1&lt;/a&gt;&lt;/b&gt;" style="ellipse;shape=cloud;whiteSpace=wrap;html=1;rounded=1;shadow=0;comic=0;strokeWidth=1;fontFamily=Verdana;fontSize=12;fillColor=#dae8fc;strokeColor=#6c8ebf;" vertex="1" parent="zIDfhM2YU5ujpkhZHymJ-304">
          <mxGeometry x="1870.3127572016458" y="493.3284600389864" width="118.22457378012932" height="70.05847953216376" as="geometry" />
        </mxCell>
        <mxCell id="zIDfhM2YU5ujpkhZHymJ-112" value="Fortgate" style="fontColor=#0066CC;verticalAlign=top;verticalLabelPosition=bottom;labelPosition=center;align=center;html=1;fillColor=#CCCCCC;strokeColor=#6881B3;gradientColor=none;gradientDirection=north;strokeWidth=2;shape=mxgraph.networks.firewall;rounded=1;shadow=0;comic=0;labelBackgroundColor=#ffffff;" vertex="1" parent="zIDfhM2YU5ujpkhZHymJ-304">
          <mxGeometry x="1726.0787771898881" y="537.6988304093568" width="118.22457378012932" height="116.76413255360626" as="geometry" />
        </mxCell>
        <mxCell id="zIDfhM2YU5ujpkhZHymJ-113" style="edgeStyle=none;html=1;labelBackgroundColor=none;endArrow=none;strokeWidth=2;fontFamily=Verdana;fontSize=28;fontColor=#0066CC;rounded=0;strokeColor=#6881B3;exitX=1.02;exitY=0.42;exitDx=0;exitDy=0;exitPerimeter=0;entryX=0.16;entryY=0.55;entryDx=0;entryDy=0;entryPerimeter=0;" edge="1" parent="zIDfhM2YU5ujpkhZHymJ-304" source="zIDfhM2YU5ujpkhZHymJ-112" target="zIDfhM2YU5ujpkhZHymJ-111">
          <mxGeometry relative="1" as="geometry">
            <mxPoint x="1937.7007642563196" y="527.1900584795322" as="targetPoint" />
            <mxPoint x="1844.3033509700176" y="643.9541910331385" as="sourcePoint" />
          </mxGeometry>
        </mxCell>
        <mxCell id="zIDfhM2YU5ujpkhZHymJ-114" style="edgeStyle=none;html=1;labelBackgroundColor=none;endArrow=none;strokeWidth=2;fontFamily=Verdana;fontSize=28;fontColor=#0066CC;rounded=0;strokeColor=#6881B3;exitX=1.008;exitY=0.587;exitDx=0;exitDy=0;exitPerimeter=0;entryX=0.16;entryY=0.55;entryDx=0;entryDy=0;entryPerimeter=0;" edge="1" parent="zIDfhM2YU5ujpkhZHymJ-304" source="zIDfhM2YU5ujpkhZHymJ-112" target="zIDfhM2YU5ujpkhZHymJ-115">
          <mxGeometry relative="1" as="geometry">
            <mxPoint x="1898.9231040564373" y="670.3428849902535" as="targetPoint" />
            <mxPoint x="1797.0135214579657" y="649.7923976608188" as="sourcePoint" />
          </mxGeometry>
        </mxCell>
        <mxCell id="zIDfhM2YU5ujpkhZHymJ-115" value="&lt;b style=&quot;border-color: var(--border-color); color: rgb(0, 0, 102);&quot;&gt;&lt;span style=&quot;border-color: var(--border-color);&quot;&gt;&lt;a href=&quot;https://45.234.101.126/&quot;&gt;WAN 2&lt;/a&gt;&lt;/span&gt;&lt;/b&gt;" style="ellipse;shape=cloud;whiteSpace=wrap;html=1;rounded=1;shadow=0;comic=0;strokeWidth=1;fontFamily=Verdana;fontSize=12;fillColor=#dae8fc;strokeColor=#6c8ebf;" vertex="1" parent="zIDfhM2YU5ujpkhZHymJ-304">
          <mxGeometry x="1870.3127572016458" y="620.6013645224173" width="118.22457378012932" height="70.05847953216376" as="geometry" />
        </mxCell>
        <mxCell id="zIDfhM2YU5ujpkhZHymJ-116" value="&lt;font color=&quot;#000066&quot;&gt;&lt;span style=&quot;font-size: 25px;&quot;&gt;015-Ouricuri&lt;/span&gt;&lt;/font&gt;" style="whiteSpace=wrap;html=1;rounded=1;shadow=1;comic=0;strokeWidth=1;fontFamily=Verdana;fontSize=14;fillColor=#f5f5f5;strokeColor=none;verticalAlign=top;fontStyle=1;glass=0;" vertex="1" parent="zIDfhM2YU5ujpkhZHymJ-304">
          <mxGeometry x="1655.1440329218105" y="899.0838206627682" width="342.851263962375" height="321.1013645224172" as="geometry" />
        </mxCell>
        <mxCell id="zIDfhM2YU5ujpkhZHymJ-117" value="&lt;b style=&quot;border-color: var(--border-color); color: rgb(0, 0, 102);&quot;&gt;WAN 1&lt;/b&gt;" style="ellipse;shape=cloud;whiteSpace=wrap;html=1;rounded=1;shadow=0;comic=0;strokeWidth=1;fontFamily=Verdana;fontSize=12;fillColor=#dae8fc;strokeColor=#6c8ebf;" vertex="1" parent="zIDfhM2YU5ujpkhZHymJ-304">
          <mxGeometry x="1870.3127572016458" y="935.2807017543861" width="118.22457378012932" height="70.05847953216376" as="geometry" />
        </mxCell>
        <mxCell id="zIDfhM2YU5ujpkhZHymJ-118" value="Fortgate" style="fontColor=#0066CC;verticalAlign=top;verticalLabelPosition=bottom;labelPosition=center;align=center;html=1;fillColor=#CCCCCC;strokeColor=#6881B3;gradientColor=none;gradientDirection=north;strokeWidth=2;shape=mxgraph.networks.firewall;rounded=1;shadow=0;comic=0;labelBackgroundColor=#ffffff;" vertex="1" parent="zIDfhM2YU5ujpkhZHymJ-304">
          <mxGeometry x="1726.0787771898881" y="979.6510721247564" width="118.22457378012932" height="116.76413255360626" as="geometry" />
        </mxCell>
        <mxCell id="zIDfhM2YU5ujpkhZHymJ-119" style="edgeStyle=none;html=1;labelBackgroundColor=none;endArrow=none;strokeWidth=2;fontFamily=Verdana;fontSize=28;fontColor=#0066CC;rounded=0;strokeColor=#6881B3;exitX=1.02;exitY=0.42;exitDx=0;exitDy=0;exitPerimeter=0;entryX=0.16;entryY=0.55;entryDx=0;entryDy=0;entryPerimeter=0;" edge="1" parent="zIDfhM2YU5ujpkhZHymJ-304" source="zIDfhM2YU5ujpkhZHymJ-118" target="zIDfhM2YU5ujpkhZHymJ-117">
          <mxGeometry relative="1" as="geometry">
            <mxPoint x="1937.7007642563196" y="969.1423001949319" as="targetPoint" />
            <mxPoint x="1844.3033509700176" y="1085.9064327485382" as="sourcePoint" />
          </mxGeometry>
        </mxCell>
        <mxCell id="zIDfhM2YU5ujpkhZHymJ-120" style="edgeStyle=none;html=1;labelBackgroundColor=none;endArrow=none;strokeWidth=2;fontFamily=Verdana;fontSize=28;fontColor=#0066CC;rounded=0;strokeColor=#6881B3;exitX=1.008;exitY=0.587;exitDx=0;exitDy=0;exitPerimeter=0;entryX=0.16;entryY=0.55;entryDx=0;entryDy=0;entryPerimeter=0;" edge="1" parent="zIDfhM2YU5ujpkhZHymJ-304" source="zIDfhM2YU5ujpkhZHymJ-118" target="zIDfhM2YU5ujpkhZHymJ-121">
          <mxGeometry relative="1" as="geometry">
            <mxPoint x="1898.9231040564373" y="1112.2951267056533" as="targetPoint" />
            <mxPoint x="1797.0135214579657" y="1091.7446393762184" as="sourcePoint" />
          </mxGeometry>
        </mxCell>
        <mxCell id="zIDfhM2YU5ujpkhZHymJ-121" value="&lt;b style=&quot;border-color: var(--border-color); color: rgb(0, 0, 102);&quot;&gt;&lt;a href=&quot;https://190.109.80.10/&quot; style=&quot;border-color: var(--border-color);&quot;&gt;WAN 2&lt;/a&gt;&lt;/b&gt;" style="ellipse;shape=cloud;whiteSpace=wrap;html=1;rounded=1;shadow=0;comic=0;strokeWidth=1;fontFamily=Verdana;fontSize=12;fillColor=#dae8fc;strokeColor=#6c8ebf;" vertex="1" parent="zIDfhM2YU5ujpkhZHymJ-304">
          <mxGeometry x="1870.3127572016458" y="1062.553606237817" width="118.22457378012932" height="70.05847953216376" as="geometry" />
        </mxCell>
        <mxCell id="zIDfhM2YU5ujpkhZHymJ-122" value="&lt;font color=&quot;#000066&quot;&gt;&lt;span style=&quot;font-size: 25px;&quot;&gt;020-Timbauba&lt;/span&gt;&lt;/font&gt;" style="whiteSpace=wrap;html=1;rounded=1;shadow=1;comic=0;strokeWidth=1;fontFamily=Verdana;fontSize=14;fillColor=#f5f5f5;strokeColor=none;verticalAlign=top;fontStyle=1;glass=0;" vertex="1" parent="zIDfhM2YU5ujpkhZHymJ-304">
          <mxGeometry x="1655.1440329218105" y="1337.5331384015594" width="342.851263962375" height="321.1013645224172" as="geometry" />
        </mxCell>
        <mxCell id="zIDfhM2YU5ujpkhZHymJ-123" value="&lt;b style=&quot;border-color: var(--border-color); color: rgb(0, 0, 102);&quot;&gt;&lt;a href=&quot;https://177.36.8.177/&quot;&gt;WAN 1&lt;/a&gt;&lt;/b&gt;" style="ellipse;shape=cloud;whiteSpace=wrap;html=1;rounded=1;shadow=0;comic=0;strokeWidth=1;fontFamily=Verdana;fontSize=12;fillColor=#dae8fc;strokeColor=#6c8ebf;" vertex="1" parent="zIDfhM2YU5ujpkhZHymJ-304">
          <mxGeometry x="1870.3127572016458" y="1395.3313840155947" width="118.22457378012932" height="70.05847953216376" as="geometry" />
        </mxCell>
        <mxCell id="zIDfhM2YU5ujpkhZHymJ-124" value="Fortgate" style="fontColor=#0066CC;verticalAlign=top;verticalLabelPosition=bottom;labelPosition=center;align=center;html=1;fillColor=#CCCCCC;strokeColor=#6881B3;gradientColor=none;gradientDirection=north;strokeWidth=2;shape=mxgraph.networks.firewall;rounded=1;shadow=0;comic=0;labelBackgroundColor=#ffffff;" vertex="1" parent="zIDfhM2YU5ujpkhZHymJ-304">
          <mxGeometry x="1726.0787771898881" y="1439.7017543859652" width="118.22457378012932" height="116.76413255360626" as="geometry" />
        </mxCell>
        <mxCell id="zIDfhM2YU5ujpkhZHymJ-125" style="edgeStyle=none;html=1;labelBackgroundColor=none;endArrow=none;strokeWidth=2;fontFamily=Verdana;fontSize=28;fontColor=#0066CC;rounded=0;strokeColor=#6881B3;exitX=1.02;exitY=0.42;exitDx=0;exitDy=0;exitPerimeter=0;entryX=0.16;entryY=0.55;entryDx=0;entryDy=0;entryPerimeter=0;" edge="1" parent="zIDfhM2YU5ujpkhZHymJ-304" source="zIDfhM2YU5ujpkhZHymJ-124" target="zIDfhM2YU5ujpkhZHymJ-123">
          <mxGeometry relative="1" as="geometry">
            <mxPoint x="1937.7007642563196" y="1429.1929824561405" as="targetPoint" />
            <mxPoint x="1844.3033509700176" y="1545.9571150097468" as="sourcePoint" />
          </mxGeometry>
        </mxCell>
        <mxCell id="zIDfhM2YU5ujpkhZHymJ-126" style="edgeStyle=none;html=1;labelBackgroundColor=none;endArrow=none;strokeWidth=2;fontFamily=Verdana;fontSize=28;fontColor=#0066CC;rounded=0;strokeColor=#6881B3;exitX=1.008;exitY=0.587;exitDx=0;exitDy=0;exitPerimeter=0;entryX=0.16;entryY=0.55;entryDx=0;entryDy=0;entryPerimeter=0;" edge="1" parent="zIDfhM2YU5ujpkhZHymJ-304" source="zIDfhM2YU5ujpkhZHymJ-124" target="zIDfhM2YU5ujpkhZHymJ-127">
          <mxGeometry relative="1" as="geometry">
            <mxPoint x="1898.9231040564373" y="1572.3458089668616" as="targetPoint" />
            <mxPoint x="1797.0135214579657" y="1551.795321637427" as="sourcePoint" />
          </mxGeometry>
        </mxCell>
        <mxCell id="zIDfhM2YU5ujpkhZHymJ-127" value="&lt;b style=&quot;border-color: var(--border-color); color: rgb(0, 0, 102);&quot;&gt;&lt;a style=&quot;border-color: var(--border-color);&quot; href=&quot;https://177.101.2.77/&quot;&gt;WAN 2&lt;/a&gt;&lt;/b&gt;" style="ellipse;shape=cloud;whiteSpace=wrap;html=1;rounded=1;shadow=0;comic=0;strokeWidth=1;fontFamily=Verdana;fontSize=12;fillColor=#dae8fc;strokeColor=#6c8ebf;" vertex="1" parent="zIDfhM2YU5ujpkhZHymJ-304">
          <mxGeometry x="1870.3127572016458" y="1522.6042884990256" width="118.22457378012932" height="70.05847953216376" as="geometry" />
        </mxCell>
        <mxCell id="zIDfhM2YU5ujpkhZHymJ-128" value="&lt;font color=&quot;#000066&quot; style=&quot;font-size: 25px;&quot;&gt;025-Tambau&lt;/font&gt;" style="whiteSpace=wrap;html=1;rounded=1;shadow=1;comic=0;strokeWidth=1;fontFamily=Verdana;fontSize=14;fillColor=#f5f5f5;strokeColor=none;verticalAlign=top;fontStyle=1;glass=0;" vertex="1" parent="zIDfhM2YU5ujpkhZHymJ-304">
          <mxGeometry x="1655.1440329218105" y="1794.664717348928" width="342.851263962375" height="321.1013645224172" as="geometry" />
        </mxCell>
        <mxCell id="zIDfhM2YU5ujpkhZHymJ-129" value="&lt;b style=&quot;border-color: var(--border-color); color: rgb(0, 0, 102);&quot;&gt;WAN 1&lt;/b&gt;" style="ellipse;shape=cloud;whiteSpace=wrap;html=1;rounded=1;shadow=0;comic=0;strokeWidth=1;fontFamily=Verdana;fontSize=12;fillColor=#dae8fc;strokeColor=#6c8ebf;" vertex="1" parent="zIDfhM2YU5ujpkhZHymJ-304">
          <mxGeometry x="1870.3127572016458" y="1830.8615984405462" width="118.22457378012932" height="70.05847953216376" as="geometry" />
        </mxCell>
        <mxCell id="zIDfhM2YU5ujpkhZHymJ-130" value="Fortgate" style="fontColor=#0066CC;verticalAlign=top;verticalLabelPosition=bottom;labelPosition=center;align=center;html=1;fillColor=#CCCCCC;strokeColor=#6881B3;gradientColor=none;gradientDirection=north;strokeWidth=2;shape=mxgraph.networks.firewall;rounded=1;shadow=0;comic=0;labelBackgroundColor=#ffffff;" vertex="1" parent="zIDfhM2YU5ujpkhZHymJ-304">
          <mxGeometry x="1726.0787771898881" y="1875.2319688109164" width="118.22457378012932" height="116.76413255360626" as="geometry" />
        </mxCell>
        <mxCell id="zIDfhM2YU5ujpkhZHymJ-131" style="edgeStyle=none;html=1;labelBackgroundColor=none;endArrow=none;strokeWidth=2;fontFamily=Verdana;fontSize=28;fontColor=#0066CC;rounded=0;strokeColor=#6881B3;exitX=1.02;exitY=0.42;exitDx=0;exitDy=0;exitPerimeter=0;entryX=0.16;entryY=0.55;entryDx=0;entryDy=0;entryPerimeter=0;" edge="1" parent="zIDfhM2YU5ujpkhZHymJ-304" source="zIDfhM2YU5ujpkhZHymJ-130" target="zIDfhM2YU5ujpkhZHymJ-129">
          <mxGeometry relative="1" as="geometry">
            <mxPoint x="1937.7007642563196" y="1864.7231968810918" as="targetPoint" />
            <mxPoint x="1844.3033509700176" y="1981.4873294346983" as="sourcePoint" />
          </mxGeometry>
        </mxCell>
        <mxCell id="zIDfhM2YU5ujpkhZHymJ-132" style="edgeStyle=none;html=1;labelBackgroundColor=none;endArrow=none;strokeWidth=2;fontFamily=Verdana;fontSize=28;fontColor=#0066CC;rounded=0;strokeColor=#6881B3;exitX=1.008;exitY=0.587;exitDx=0;exitDy=0;exitPerimeter=0;entryX=0.16;entryY=0.55;entryDx=0;entryDy=0;entryPerimeter=0;" edge="1" parent="zIDfhM2YU5ujpkhZHymJ-304" source="zIDfhM2YU5ujpkhZHymJ-130" target="zIDfhM2YU5ujpkhZHymJ-133">
          <mxGeometry relative="1" as="geometry">
            <mxPoint x="1898.9231040564373" y="2007.876023391813" as="targetPoint" />
            <mxPoint x="1797.0135214579657" y="1987.3255360623784" as="sourcePoint" />
          </mxGeometry>
        </mxCell>
        <mxCell id="zIDfhM2YU5ujpkhZHymJ-133" value="&lt;b style=&quot;border-color: var(--border-color); color: rgb(0, 0, 102);&quot;&gt;&lt;a href=&quot;https://190.109.80.10/&quot; style=&quot;border-color: var(--border-color);&quot;&gt;WAN 2&lt;/a&gt;&lt;/b&gt;" style="ellipse;shape=cloud;whiteSpace=wrap;html=1;rounded=1;shadow=0;comic=0;strokeWidth=1;fontFamily=Verdana;fontSize=12;fillColor=#dae8fc;strokeColor=#6c8ebf;" vertex="1" parent="zIDfhM2YU5ujpkhZHymJ-304">
          <mxGeometry x="1870.3127572016458" y="1958.134502923977" width="118.22457378012932" height="70.05847953216376" as="geometry" />
        </mxCell>
        <mxCell id="zIDfhM2YU5ujpkhZHymJ-134" value="&lt;font color=&quot;#000066&quot; style=&quot;font-size: 25px;&quot;&gt;026-Forrock&lt;/font&gt;" style="whiteSpace=wrap;html=1;rounded=1;shadow=1;comic=0;strokeWidth=1;fontFamily=Verdana;fontSize=14;fillColor=#f5f5f5;strokeColor=none;verticalAlign=top;fontStyle=1;glass=0;" vertex="1" parent="zIDfhM2YU5ujpkhZHymJ-304">
          <mxGeometry y="2236.0331384015594" width="342.851263962375" height="321.1013645224172" as="geometry" />
        </mxCell>
        <mxCell id="zIDfhM2YU5ujpkhZHymJ-135" value="&lt;b style=&quot;border-color: var(--border-color); color: rgb(0, 0, 102);&quot;&gt;WAN 1&lt;/b&gt;" style="ellipse;shape=cloud;whiteSpace=wrap;html=1;rounded=1;shadow=0;comic=0;strokeWidth=1;fontFamily=Verdana;fontSize=12;fillColor=#dae8fc;strokeColor=#6c8ebf;" vertex="1" parent="zIDfhM2YU5ujpkhZHymJ-304">
          <mxGeometry x="215.16872427983537" y="2272.2300194931777" width="118.22457378012932" height="70.05847953216376" as="geometry" />
        </mxCell>
        <mxCell id="zIDfhM2YU5ujpkhZHymJ-136" value="Fortgate" style="fontColor=#0066CC;verticalAlign=top;verticalLabelPosition=bottom;labelPosition=center;align=center;html=1;fillColor=#CCCCCC;strokeColor=#6881B3;gradientColor=none;gradientDirection=north;strokeWidth=2;shape=mxgraph.networks.firewall;rounded=1;shadow=0;comic=0;labelBackgroundColor=#ffffff;" vertex="1" parent="zIDfhM2YU5ujpkhZHymJ-304">
          <mxGeometry x="70.9347442680776" y="2316.6003898635477" width="118.22457378012932" height="116.76413255360626" as="geometry" />
        </mxCell>
        <mxCell id="zIDfhM2YU5ujpkhZHymJ-137" style="edgeStyle=none;html=1;labelBackgroundColor=none;endArrow=none;strokeWidth=2;fontFamily=Verdana;fontSize=28;fontColor=#0066CC;rounded=0;strokeColor=#6881B3;exitX=1.02;exitY=0.42;exitDx=0;exitDy=0;exitPerimeter=0;entryX=0.16;entryY=0.55;entryDx=0;entryDy=0;entryPerimeter=0;" edge="1" parent="zIDfhM2YU5ujpkhZHymJ-304" source="zIDfhM2YU5ujpkhZHymJ-136" target="zIDfhM2YU5ujpkhZHymJ-135">
          <mxGeometry relative="1" as="geometry">
            <mxPoint x="282.5567313345091" y="2306.0916179337232" as="targetPoint" />
            <mxPoint x="189.15931804820693" y="2422.8557504873297" as="sourcePoint" />
          </mxGeometry>
        </mxCell>
        <mxCell id="zIDfhM2YU5ujpkhZHymJ-138" style="edgeStyle=none;html=1;labelBackgroundColor=none;endArrow=none;strokeWidth=2;fontFamily=Verdana;fontSize=28;fontColor=#0066CC;rounded=0;strokeColor=#6881B3;exitX=1.008;exitY=0.587;exitDx=0;exitDy=0;exitPerimeter=0;entryX=0.16;entryY=0.55;entryDx=0;entryDy=0;entryPerimeter=0;" edge="1" parent="zIDfhM2YU5ujpkhZHymJ-304" source="zIDfhM2YU5ujpkhZHymJ-136" target="zIDfhM2YU5ujpkhZHymJ-139">
          <mxGeometry relative="1" as="geometry">
            <mxPoint x="243.77907113462672" y="2449.2444444444445" as="targetPoint" />
            <mxPoint x="141.8694885361552" y="2428.69395711501" as="sourcePoint" />
          </mxGeometry>
        </mxCell>
        <mxCell id="zIDfhM2YU5ujpkhZHymJ-139" value="&lt;b style=&quot;border-color: var(--border-color); color: rgb(0, 0, 102);&quot;&gt;&lt;a href=&quot;https://190.109.80.10/&quot; style=&quot;border-color: var(--border-color);&quot;&gt;WAN 2&lt;/a&gt;&lt;/b&gt;" style="ellipse;shape=cloud;whiteSpace=wrap;html=1;rounded=1;shadow=0;comic=0;strokeWidth=1;fontFamily=Verdana;fontSize=12;fillColor=#dae8fc;strokeColor=#6c8ebf;" vertex="1" parent="zIDfhM2YU5ujpkhZHymJ-304">
          <mxGeometry x="215.16872427983537" y="2399.5029239766086" width="118.22457378012932" height="70.05847953216376" as="geometry" />
        </mxCell>
        <mxCell id="zIDfhM2YU5ujpkhZHymJ-140" value="&lt;font color=&quot;#000066&quot; style=&quot;font-size: 25px;&quot;&gt;027-&lt;/font&gt;&lt;font color=&quot;#000066&quot;&gt;&lt;span style=&quot;font-size: 25px;&quot;&gt;Varzea&lt;/span&gt;&lt;/font&gt;" style="whiteSpace=wrap;html=1;rounded=1;shadow=1;comic=0;strokeWidth=1;fontFamily=Verdana;fontSize=14;fillColor=#f5f5f5;strokeColor=none;verticalAlign=top;fontStyle=1;glass=0;" vertex="1" parent="zIDfhM2YU5ujpkhZHymJ-304">
          <mxGeometry x="413.78600823045264" y="2236.0331384015594" width="342.851263962375" height="321.1013645224172" as="geometry" />
        </mxCell>
        <mxCell id="zIDfhM2YU5ujpkhZHymJ-141" value="&lt;b style=&quot;border-color: var(--border-color); color: rgb(0, 0, 102);&quot;&gt;WAN 1&lt;/b&gt;" style="ellipse;shape=cloud;whiteSpace=wrap;html=1;rounded=1;shadow=0;comic=0;strokeWidth=1;fontFamily=Verdana;fontSize=12;fillColor=#dae8fc;strokeColor=#6c8ebf;" vertex="1" parent="zIDfhM2YU5ujpkhZHymJ-304">
          <mxGeometry x="628.954732510288" y="2272.2300194931777" width="118.22457378012932" height="70.05847953216376" as="geometry" />
        </mxCell>
        <mxCell id="zIDfhM2YU5ujpkhZHymJ-142" value="Fortgate" style="fontColor=#0066CC;verticalAlign=top;verticalLabelPosition=bottom;labelPosition=center;align=center;html=1;fillColor=#CCCCCC;strokeColor=#6881B3;gradientColor=none;gradientDirection=north;strokeWidth=2;shape=mxgraph.networks.firewall;rounded=1;shadow=0;comic=0;labelBackgroundColor=#ffffff;" vertex="1" parent="zIDfhM2YU5ujpkhZHymJ-304">
          <mxGeometry x="484.7207524985302" y="2316.6003898635477" width="118.22457378012932" height="116.76413255360626" as="geometry" />
        </mxCell>
        <mxCell id="zIDfhM2YU5ujpkhZHymJ-143" style="edgeStyle=none;html=1;labelBackgroundColor=none;endArrow=none;strokeWidth=2;fontFamily=Verdana;fontSize=28;fontColor=#0066CC;rounded=0;strokeColor=#6881B3;exitX=1.02;exitY=0.42;exitDx=0;exitDy=0;exitPerimeter=0;entryX=0.16;entryY=0.55;entryDx=0;entryDy=0;entryPerimeter=0;" edge="1" parent="zIDfhM2YU5ujpkhZHymJ-304" source="zIDfhM2YU5ujpkhZHymJ-142" target="zIDfhM2YU5ujpkhZHymJ-141">
          <mxGeometry relative="1" as="geometry">
            <mxPoint x="696.3427395649617" y="2306.0916179337232" as="targetPoint" />
            <mxPoint x="602.9453262786595" y="2422.8557504873297" as="sourcePoint" />
          </mxGeometry>
        </mxCell>
        <mxCell id="zIDfhM2YU5ujpkhZHymJ-144" style="edgeStyle=none;html=1;labelBackgroundColor=none;endArrow=none;strokeWidth=2;fontFamily=Verdana;fontSize=28;fontColor=#0066CC;rounded=0;strokeColor=#6881B3;exitX=1.008;exitY=0.587;exitDx=0;exitDy=0;exitPerimeter=0;entryX=0.16;entryY=0.55;entryDx=0;entryDy=0;entryPerimeter=0;" edge="1" parent="zIDfhM2YU5ujpkhZHymJ-304" source="zIDfhM2YU5ujpkhZHymJ-142" target="zIDfhM2YU5ujpkhZHymJ-145">
          <mxGeometry relative="1" as="geometry">
            <mxPoint x="657.5650793650793" y="2449.2444444444445" as="targetPoint" />
            <mxPoint x="555.6554967666078" y="2428.69395711501" as="sourcePoint" />
          </mxGeometry>
        </mxCell>
        <mxCell id="zIDfhM2YU5ujpkhZHymJ-145" value="&lt;b style=&quot;border-color: var(--border-color); color: rgb(0, 0, 102);&quot;&gt;&lt;a href=&quot;https://190.109.80.10/&quot; style=&quot;border-color: var(--border-color);&quot;&gt;WAN 2&lt;/a&gt;&lt;/b&gt;" style="ellipse;shape=cloud;whiteSpace=wrap;html=1;rounded=1;shadow=0;comic=0;strokeWidth=1;fontFamily=Verdana;fontSize=12;fillColor=#dae8fc;strokeColor=#6c8ebf;" vertex="1" parent="zIDfhM2YU5ujpkhZHymJ-304">
          <mxGeometry x="628.954732510288" y="2399.5029239766086" width="118.22457378012932" height="70.05847953216376" as="geometry" />
        </mxCell>
        <mxCell id="zIDfhM2YU5ujpkhZHymJ-146" value="&lt;font style=&quot;font-size: 25px;&quot; color=&quot;#000066&quot;&gt;028-Fragoso&lt;/font&gt;" style="whiteSpace=wrap;html=1;rounded=1;shadow=1;comic=0;strokeWidth=1;fontFamily=Verdana;fontSize=14;fillColor=#f5f5f5;strokeColor=none;verticalAlign=top;fontStyle=1;glass=0;" vertex="1" parent="zIDfhM2YU5ujpkhZHymJ-304">
          <mxGeometry x="839.3944738389182" y="2236.0331384015594" width="342.851263962375" height="321.1013645224172" as="geometry" />
        </mxCell>
        <mxCell id="zIDfhM2YU5ujpkhZHymJ-147" value="&lt;b style=&quot;border-color: var(--border-color); color: rgb(0, 0, 102);&quot;&gt;WAN 1&lt;/b&gt;" style="ellipse;shape=cloud;whiteSpace=wrap;html=1;rounded=1;shadow=0;comic=0;strokeWidth=1;fontFamily=Verdana;fontSize=12;fillColor=#dae8fc;strokeColor=#6c8ebf;" vertex="1" parent="zIDfhM2YU5ujpkhZHymJ-304">
          <mxGeometry x="1054.5631981187535" y="2272.2300194931777" width="118.22457378012932" height="70.05847953216376" as="geometry" />
        </mxCell>
        <mxCell id="zIDfhM2YU5ujpkhZHymJ-148" value="Fortgate" style="fontColor=#0066CC;verticalAlign=top;verticalLabelPosition=bottom;labelPosition=center;align=center;html=1;fillColor=#CCCCCC;strokeColor=#6881B3;gradientColor=none;gradientDirection=north;strokeWidth=2;shape=mxgraph.networks.firewall;rounded=1;shadow=0;comic=0;labelBackgroundColor=#ffffff;" vertex="1" parent="zIDfhM2YU5ujpkhZHymJ-304">
          <mxGeometry x="910.3292181069958" y="2316.6003898635477" width="118.22457378012932" height="116.76413255360626" as="geometry" />
        </mxCell>
        <mxCell id="zIDfhM2YU5ujpkhZHymJ-149" style="edgeStyle=none;html=1;labelBackgroundColor=none;endArrow=none;strokeWidth=2;fontFamily=Verdana;fontSize=28;fontColor=#0066CC;rounded=0;strokeColor=#6881B3;exitX=1.02;exitY=0.42;exitDx=0;exitDy=0;exitPerimeter=0;entryX=0.16;entryY=0.55;entryDx=0;entryDy=0;entryPerimeter=0;" edge="1" parent="zIDfhM2YU5ujpkhZHymJ-304" source="zIDfhM2YU5ujpkhZHymJ-148" target="zIDfhM2YU5ujpkhZHymJ-147">
          <mxGeometry relative="1" as="geometry">
            <mxPoint x="1121.951205173427" y="2306.0916179337232" as="targetPoint" />
            <mxPoint x="1028.553791887125" y="2422.8557504873297" as="sourcePoint" />
          </mxGeometry>
        </mxCell>
        <mxCell id="zIDfhM2YU5ujpkhZHymJ-150" style="edgeStyle=none;html=1;labelBackgroundColor=none;endArrow=none;strokeWidth=2;fontFamily=Verdana;fontSize=28;fontColor=#0066CC;rounded=0;strokeColor=#6881B3;exitX=1.008;exitY=0.587;exitDx=0;exitDy=0;exitPerimeter=0;entryX=0.16;entryY=0.55;entryDx=0;entryDy=0;entryPerimeter=0;" edge="1" parent="zIDfhM2YU5ujpkhZHymJ-304" source="zIDfhM2YU5ujpkhZHymJ-148" target="zIDfhM2YU5ujpkhZHymJ-151">
          <mxGeometry relative="1" as="geometry">
            <mxPoint x="1083.173544973545" y="2449.2444444444445" as="targetPoint" />
            <mxPoint x="981.2639623750733" y="2428.69395711501" as="sourcePoint" />
          </mxGeometry>
        </mxCell>
        <mxCell id="zIDfhM2YU5ujpkhZHymJ-151" value="&lt;b style=&quot;border-color: var(--border-color); color: rgb(0, 0, 102);&quot;&gt;&lt;a href=&quot;https://190.109.80.10/&quot; style=&quot;border-color: var(--border-color);&quot;&gt;WAN 2&lt;/a&gt;&lt;/b&gt;" style="ellipse;shape=cloud;whiteSpace=wrap;html=1;rounded=1;shadow=0;comic=0;strokeWidth=1;fontFamily=Verdana;fontSize=12;fillColor=#dae8fc;strokeColor=#6c8ebf;" vertex="1" parent="zIDfhM2YU5ujpkhZHymJ-304">
          <mxGeometry x="1054.5631981187535" y="2399.5029239766086" width="118.22457378012932" height="70.05847953216376" as="geometry" />
        </mxCell>
        <mxCell id="zIDfhM2YU5ujpkhZHymJ-152" value="&lt;font color=&quot;#000066&quot; style=&quot;font-size: 25px;&quot;&gt;029-SÃ£o Mateus&lt;/font&gt;" style="whiteSpace=wrap;html=1;rounded=1;shadow=1;comic=0;strokeWidth=1;fontFamily=Verdana;fontSize=14;fillColor=#f5f5f5;strokeColor=none;verticalAlign=top;fontStyle=1;glass=0;" vertex="1" parent="zIDfhM2YU5ujpkhZHymJ-304">
          <mxGeometry x="1253.1804820693708" y="2236.0331384015594" width="342.851263962375" height="321.1013645224172" as="geometry" />
        </mxCell>
        <mxCell id="zIDfhM2YU5ujpkhZHymJ-153" value="&lt;b style=&quot;border-color: var(--border-color); color: rgb(0, 0, 102);&quot;&gt;&lt;a href=&quot;https://177.221.37.161/&quot;&gt;WAN 1&lt;/a&gt;&lt;/b&gt;" style="ellipse;shape=cloud;whiteSpace=wrap;html=1;rounded=1;shadow=0;comic=0;strokeWidth=1;fontFamily=Verdana;fontSize=12;fillColor=#dae8fc;strokeColor=#6c8ebf;" vertex="1" parent="zIDfhM2YU5ujpkhZHymJ-304">
          <mxGeometry x="1468.349206349206" y="2272.2300194931777" width="118.22457378012932" height="70.05847953216376" as="geometry" />
        </mxCell>
        <mxCell id="zIDfhM2YU5ujpkhZHymJ-154" value="Fortgate" style="fontColor=#0066CC;verticalAlign=top;verticalLabelPosition=bottom;labelPosition=center;align=center;html=1;fillColor=#CCCCCC;strokeColor=#6881B3;gradientColor=none;gradientDirection=north;strokeWidth=2;shape=mxgraph.networks.firewall;rounded=1;shadow=0;comic=0;labelBackgroundColor=#ffffff;" vertex="1" parent="zIDfhM2YU5ujpkhZHymJ-304">
          <mxGeometry x="1324.1152263374483" y="2316.6003898635477" width="118.22457378012932" height="116.76413255360626" as="geometry" />
        </mxCell>
        <mxCell id="zIDfhM2YU5ujpkhZHymJ-155" style="edgeStyle=none;html=1;labelBackgroundColor=none;endArrow=none;strokeWidth=2;fontFamily=Verdana;fontSize=28;fontColor=#0066CC;rounded=0;strokeColor=#6881B3;exitX=1.02;exitY=0.42;exitDx=0;exitDy=0;exitPerimeter=0;entryX=0.16;entryY=0.55;entryDx=0;entryDy=0;entryPerimeter=0;" edge="1" parent="zIDfhM2YU5ujpkhZHymJ-304" source="zIDfhM2YU5ujpkhZHymJ-154" target="zIDfhM2YU5ujpkhZHymJ-153">
          <mxGeometry relative="1" as="geometry">
            <mxPoint x="1535.7372134038799" y="2306.0916179337232" as="targetPoint" />
            <mxPoint x="1442.3398001175779" y="2422.8557504873297" as="sourcePoint" />
          </mxGeometry>
        </mxCell>
        <mxCell id="zIDfhM2YU5ujpkhZHymJ-156" style="edgeStyle=none;html=1;labelBackgroundColor=none;endArrow=none;strokeWidth=2;fontFamily=Verdana;fontSize=28;fontColor=#0066CC;rounded=0;strokeColor=#6881B3;exitX=1.008;exitY=0.587;exitDx=0;exitDy=0;exitPerimeter=0;entryX=0.16;entryY=0.55;entryDx=0;entryDy=0;entryPerimeter=0;" edge="1" parent="zIDfhM2YU5ujpkhZHymJ-304" source="zIDfhM2YU5ujpkhZHymJ-154" target="zIDfhM2YU5ujpkhZHymJ-157">
          <mxGeometry relative="1" as="geometry">
            <mxPoint x="1496.9595532039975" y="2449.2444444444445" as="targetPoint" />
            <mxPoint x="1395.049970605526" y="2428.69395711501" as="sourcePoint" />
          </mxGeometry>
        </mxCell>
        <mxCell id="zIDfhM2YU5ujpkhZHymJ-157" value="&lt;b style=&quot;border-color: var(--border-color); color: rgb(0, 0, 102);&quot;&gt;&lt;a style=&quot;border-color: var(--border-color);&quot; href=&quot;https://200.39.158.59/&quot;&gt;WAN 2&lt;/a&gt;&lt;/b&gt;" style="ellipse;shape=cloud;whiteSpace=wrap;html=1;rounded=1;shadow=0;comic=0;strokeWidth=1;fontFamily=Verdana;fontSize=12;fillColor=#dae8fc;strokeColor=#6c8ebf;" vertex="1" parent="zIDfhM2YU5ujpkhZHymJ-304">
          <mxGeometry x="1468.349206349206" y="2399.5029239766086" width="118.22457378012932" height="70.05847953216376" as="geometry" />
        </mxCell>
        <mxCell id="zIDfhM2YU5ujpkhZHymJ-158" value="&lt;font color=&quot;#000066&quot; style=&quot;font-size: 25px;&quot;&gt;030-Paulista Centro&lt;/font&gt;" style="whiteSpace=wrap;html=1;rounded=1;shadow=1;comic=0;strokeWidth=1;fontFamily=Verdana;fontSize=14;fillColor=#f5f5f5;strokeColor=none;verticalAlign=top;fontStyle=1;glass=0;" vertex="1" parent="zIDfhM2YU5ujpkhZHymJ-304">
          <mxGeometry x="1655.1440329218105" y="2236.0331384015594" width="342.851263962375" height="321.1013645224172" as="geometry" />
        </mxCell>
        <mxCell id="zIDfhM2YU5ujpkhZHymJ-159" value="&lt;b style=&quot;border-color: var(--border-color); color: rgb(0, 0, 102);&quot;&gt;WAN 1&lt;/b&gt;" style="ellipse;shape=cloud;whiteSpace=wrap;html=1;rounded=1;shadow=0;comic=0;strokeWidth=1;fontFamily=Verdana;fontSize=12;fillColor=#dae8fc;strokeColor=#6c8ebf;" vertex="1" parent="zIDfhM2YU5ujpkhZHymJ-304">
          <mxGeometry x="1870.3127572016458" y="2272.2300194931777" width="118.22457378012932" height="70.05847953216376" as="geometry" />
        </mxCell>
        <mxCell id="zIDfhM2YU5ujpkhZHymJ-160" value="Fortgate" style="fontColor=#0066CC;verticalAlign=top;verticalLabelPosition=bottom;labelPosition=center;align=center;html=1;fillColor=#CCCCCC;strokeColor=#6881B3;gradientColor=none;gradientDirection=north;strokeWidth=2;shape=mxgraph.networks.firewall;rounded=1;shadow=0;comic=0;labelBackgroundColor=#ffffff;" vertex="1" parent="zIDfhM2YU5ujpkhZHymJ-304">
          <mxGeometry x="1726.0787771898881" y="2316.6003898635477" width="118.22457378012932" height="116.76413255360626" as="geometry" />
        </mxCell>
        <mxCell id="zIDfhM2YU5ujpkhZHymJ-161" style="edgeStyle=none;html=1;labelBackgroundColor=none;endArrow=none;strokeWidth=2;fontFamily=Verdana;fontSize=28;fontColor=#0066CC;rounded=0;strokeColor=#6881B3;exitX=1.02;exitY=0.42;exitDx=0;exitDy=0;exitPerimeter=0;entryX=0.16;entryY=0.55;entryDx=0;entryDy=0;entryPerimeter=0;" edge="1" parent="zIDfhM2YU5ujpkhZHymJ-304" source="zIDfhM2YU5ujpkhZHymJ-160" target="zIDfhM2YU5ujpkhZHymJ-159">
          <mxGeometry relative="1" as="geometry">
            <mxPoint x="1937.7007642563196" y="2306.0916179337232" as="targetPoint" />
            <mxPoint x="1844.3033509700176" y="2422.8557504873297" as="sourcePoint" />
          </mxGeometry>
        </mxCell>
        <mxCell id="zIDfhM2YU5ujpkhZHymJ-162" style="edgeStyle=none;html=1;labelBackgroundColor=none;endArrow=none;strokeWidth=2;fontFamily=Verdana;fontSize=28;fontColor=#0066CC;rounded=0;strokeColor=#6881B3;exitX=1.008;exitY=0.587;exitDx=0;exitDy=0;exitPerimeter=0;entryX=0.16;entryY=0.55;entryDx=0;entryDy=0;entryPerimeter=0;" edge="1" parent="zIDfhM2YU5ujpkhZHymJ-304" source="zIDfhM2YU5ujpkhZHymJ-160" target="zIDfhM2YU5ujpkhZHymJ-163">
          <mxGeometry relative="1" as="geometry">
            <mxPoint x="1898.9231040564373" y="2449.2444444444445" as="targetPoint" />
            <mxPoint x="1797.0135214579657" y="2428.69395711501" as="sourcePoint" />
          </mxGeometry>
        </mxCell>
        <mxCell id="zIDfhM2YU5ujpkhZHymJ-163" value="&lt;b style=&quot;border-color: var(--border-color); color: rgb(0, 0, 102);&quot;&gt;&lt;a href=&quot;https://190.109.80.10/&quot; style=&quot;border-color: var(--border-color);&quot;&gt;WAN 2&lt;/a&gt;&lt;/b&gt;" style="ellipse;shape=cloud;whiteSpace=wrap;html=1;rounded=1;shadow=0;comic=0;strokeWidth=1;fontFamily=Verdana;fontSize=12;fillColor=#dae8fc;strokeColor=#6c8ebf;" vertex="1" parent="zIDfhM2YU5ujpkhZHymJ-304">
          <mxGeometry x="1870.3127572016458" y="2399.5029239766086" width="118.22457378012932" height="70.05847953216376" as="geometry" />
        </mxCell>
        <mxCell id="zIDfhM2YU5ujpkhZHymJ-181" value="&lt;font color=&quot;#000066&quot; style=&quot;font-size: 30px;&quot;&gt;001-Carpina&lt;/font&gt;" style="whiteSpace=wrap;html=1;rounded=1;shadow=1;comic=0;strokeWidth=1;fontFamily=Verdana;fontSize=14;fillColor=#f5f5f5;strokeColor=none;verticalAlign=top;fontStyle=1;glass=0;" vertex="1" parent="zIDfhM2YU5ujpkhZHymJ-304">
          <mxGeometry x="10.64021164021164" width="342.851263962375" height="321.1013645224172" as="geometry" />
        </mxCell>
        <mxCell id="zIDfhM2YU5ujpkhZHymJ-182" value="&lt;font color=&quot;#000066&quot; size=&quot;1&quot;&gt;&lt;b style=&quot;font-size: 12px;&quot;&gt;&lt;a href=&quot;https://179.124.141.65/&quot;&gt;WAN 1&lt;/a&gt;&lt;/b&gt;&lt;/font&gt;" style="ellipse;shape=cloud;whiteSpace=wrap;html=1;rounded=1;shadow=0;comic=0;strokeWidth=1;fontFamily=Verdana;fontSize=12;fillColor=#dae8fc;strokeColor=#6c8ebf;" vertex="1" parent="zIDfhM2YU5ujpkhZHymJ-304">
          <mxGeometry x="225.808935920047" y="36.19688109161793" width="118.22457378012932" height="70.05847953216376" as="geometry" />
        </mxCell>
        <mxCell id="zIDfhM2YU5ujpkhZHymJ-183" value="Fortgate" style="fontColor=#0066CC;verticalAlign=top;verticalLabelPosition=bottom;labelPosition=center;align=center;html=1;fillColor=#CCCCCC;strokeColor=#6881B3;gradientColor=none;gradientDirection=north;strokeWidth=2;shape=mxgraph.networks.firewall;rounded=1;shadow=0;comic=0;labelBackgroundColor=#ffffff;" vertex="1" parent="zIDfhM2YU5ujpkhZHymJ-304">
          <mxGeometry x="81.57495590828923" y="80.56725146198832" width="118.22457378012932" height="116.76413255360626" as="geometry" />
        </mxCell>
        <mxCell id="zIDfhM2YU5ujpkhZHymJ-184" style="edgeStyle=none;html=1;labelBackgroundColor=none;endArrow=none;strokeWidth=2;fontFamily=Verdana;fontSize=28;fontColor=#0066CC;rounded=0;strokeColor=#6881B3;exitX=1.02;exitY=0.42;exitDx=0;exitDy=0;exitPerimeter=0;entryX=0.16;entryY=0.55;entryDx=0;entryDy=0;entryPerimeter=0;" edge="1" parent="zIDfhM2YU5ujpkhZHymJ-304" source="zIDfhM2YU5ujpkhZHymJ-183" target="zIDfhM2YU5ujpkhZHymJ-182">
          <mxGeometry relative="1" as="geometry">
            <mxPoint x="293.19694297472074" y="70.05847953216376" as="targetPoint" />
            <mxPoint x="199.79952968841857" y="186.82261208577" as="sourcePoint" />
          </mxGeometry>
        </mxCell>
        <mxCell id="zIDfhM2YU5ujpkhZHymJ-185" style="edgeStyle=none;html=1;labelBackgroundColor=none;endArrow=none;strokeWidth=2;fontFamily=Verdana;fontSize=28;fontColor=#0066CC;rounded=0;strokeColor=#6881B3;exitX=1.008;exitY=0.587;exitDx=0;exitDy=0;exitPerimeter=0;entryX=0.16;entryY=0.55;entryDx=0;entryDy=0;entryPerimeter=0;" edge="1" parent="zIDfhM2YU5ujpkhZHymJ-304" source="zIDfhM2YU5ujpkhZHymJ-183" target="zIDfhM2YU5ujpkhZHymJ-186">
          <mxGeometry relative="1" as="geometry">
            <mxPoint x="254.41928277483834" y="213.21130604288504" as="targetPoint" />
            <mxPoint x="152.50970017636683" y="192.6608187134503" as="sourcePoint" />
          </mxGeometry>
        </mxCell>
        <mxCell id="zIDfhM2YU5ujpkhZHymJ-186" value="&lt;font size=&quot;1&quot; color=&quot;#000066&quot;&gt;&lt;b style=&quot;font-size: 12px;&quot;&gt;&lt;a href=&quot;https://201.71.61.168/&quot;&gt;WAN 2&lt;/a&gt;&lt;/b&gt;&lt;/font&gt;" style="ellipse;shape=cloud;whiteSpace=wrap;html=1;rounded=1;shadow=0;comic=0;strokeWidth=1;fontFamily=Verdana;fontSize=12;fillColor=#dae8fc;strokeColor=#6c8ebf;" vertex="1" parent="zIDfhM2YU5ujpkhZHymJ-304">
          <mxGeometry x="225.808935920047" y="163.46978557504875" width="118.22457378012932" height="70.05847953216376" as="geometry" />
        </mxCell>
        <mxCell id="zIDfhM2YU5ujpkhZHymJ-187" value="&lt;font color=&quot;#000066&quot; style=&quot;font-size: 30px;&quot;&gt;002-Vitoria&lt;/font&gt;" style="whiteSpace=wrap;html=1;rounded=1;shadow=1;comic=0;strokeWidth=1;fontFamily=Verdana;fontSize=14;fillColor=#f5f5f5;strokeColor=none;verticalAlign=top;fontStyle=1;glass=0;" vertex="1" parent="zIDfhM2YU5ujpkhZHymJ-304">
          <mxGeometry x="424.4262198706642" width="342.851263962375" height="321.1013645224172" as="geometry" />
        </mxCell>
        <mxCell id="zIDfhM2YU5ujpkhZHymJ-188" value="&lt;b style=&quot;border-color: var(--border-color); color: rgb(0, 0, 102);&quot;&gt;&lt;a href=&quot;https://177.221.46.17/&quot;&gt;WAN 1&lt;/a&gt;&lt;/b&gt;" style="ellipse;shape=cloud;whiteSpace=wrap;html=1;rounded=1;shadow=0;comic=0;strokeWidth=1;fontFamily=Verdana;fontSize=12;fillColor=#dae8fc;strokeColor=#6c8ebf;" vertex="1" parent="zIDfhM2YU5ujpkhZHymJ-304">
          <mxGeometry x="639.5949441504997" y="36.19688109161793" width="118.22457378012932" height="70.05847953216376" as="geometry" />
        </mxCell>
        <mxCell id="zIDfhM2YU5ujpkhZHymJ-189" value="Fortgate" style="fontColor=#0066CC;verticalAlign=top;verticalLabelPosition=bottom;labelPosition=center;align=center;html=1;fillColor=#CCCCCC;strokeColor=#6881B3;gradientColor=none;gradientDirection=north;strokeWidth=2;shape=mxgraph.networks.firewall;rounded=1;shadow=0;comic=0;labelBackgroundColor=#ffffff;" vertex="1" parent="zIDfhM2YU5ujpkhZHymJ-304">
          <mxGeometry x="495.36096413874185" y="80.56725146198832" width="118.22457378012932" height="116.76413255360626" as="geometry" />
        </mxCell>
        <mxCell id="zIDfhM2YU5ujpkhZHymJ-190" style="edgeStyle=none;html=1;labelBackgroundColor=none;endArrow=none;strokeWidth=2;fontFamily=Verdana;fontSize=28;fontColor=#0066CC;rounded=0;strokeColor=#6881B3;exitX=1.02;exitY=0.42;exitDx=0;exitDy=0;exitPerimeter=0;entryX=0.16;entryY=0.55;entryDx=0;entryDy=0;entryPerimeter=0;" edge="1" parent="zIDfhM2YU5ujpkhZHymJ-304" source="zIDfhM2YU5ujpkhZHymJ-189" target="zIDfhM2YU5ujpkhZHymJ-188">
          <mxGeometry relative="1" as="geometry">
            <mxPoint x="706.9829512051733" y="70.05847953216376" as="targetPoint" />
            <mxPoint x="613.5855379188712" y="186.82261208577" as="sourcePoint" />
          </mxGeometry>
        </mxCell>
        <mxCell id="zIDfhM2YU5ujpkhZHymJ-191" style="edgeStyle=none;html=1;labelBackgroundColor=none;endArrow=none;strokeWidth=2;fontFamily=Verdana;fontSize=28;fontColor=#0066CC;rounded=0;strokeColor=#6881B3;exitX=1.008;exitY=0.587;exitDx=0;exitDy=0;exitPerimeter=0;entryX=0.16;entryY=0.55;entryDx=0;entryDy=0;entryPerimeter=0;" edge="1" parent="zIDfhM2YU5ujpkhZHymJ-304" source="zIDfhM2YU5ujpkhZHymJ-189" target="zIDfhM2YU5ujpkhZHymJ-192">
          <mxGeometry relative="1" as="geometry">
            <mxPoint x="668.205291005291" y="213.21130604288504" as="targetPoint" />
            <mxPoint x="566.2957084068195" y="192.6608187134503" as="sourcePoint" />
          </mxGeometry>
        </mxCell>
        <mxCell id="zIDfhM2YU5ujpkhZHymJ-192" value="&lt;b style=&quot;border-color: var(--border-color); color: rgb(0, 0, 102);&quot;&gt;&lt;a style=&quot;border-color: var(--border-color);&quot; href=&quot;https://190.89.90.64/&quot;&gt;WAN 2&lt;/a&gt;&lt;/b&gt;" style="ellipse;shape=cloud;whiteSpace=wrap;html=1;rounded=1;shadow=0;comic=0;strokeWidth=1;fontFamily=Verdana;fontSize=12;fillColor=#dae8fc;strokeColor=#6c8ebf;" vertex="1" parent="zIDfhM2YU5ujpkhZHymJ-304">
          <mxGeometry x="639.5949441504997" y="163.46978557504875" width="118.22457378012932" height="70.05847953216376" as="geometry" />
        </mxCell>
        <mxCell id="zIDfhM2YU5ujpkhZHymJ-193" value="&lt;font color=&quot;#000066&quot; style=&quot;font-size: 30px;&quot;&gt;003-Arcoverde&lt;/font&gt;" style="whiteSpace=wrap;html=1;rounded=1;shadow=1;comic=0;strokeWidth=1;fontFamily=Verdana;fontSize=14;fillColor=#f5f5f5;strokeColor=none;verticalAlign=top;fontStyle=1;glass=0;" vertex="1" parent="zIDfhM2YU5ujpkhZHymJ-304">
          <mxGeometry x="850.0346854791298" width="342.851263962375" height="321.1013645224172" as="geometry" />
        </mxCell>
        <mxCell id="zIDfhM2YU5ujpkhZHymJ-194" value="&lt;b style=&quot;border-color: var(--border-color); color: rgb(0, 0, 102);&quot;&gt;&lt;a href=&quot;https://187.103.66.205/&quot;&gt;WAN 1&lt;/a&gt;&lt;/b&gt;" style="ellipse;shape=cloud;whiteSpace=wrap;html=1;rounded=1;shadow=0;comic=0;strokeWidth=1;fontFamily=Verdana;fontSize=12;fillColor=#dae8fc;strokeColor=#6c8ebf;" vertex="1" parent="zIDfhM2YU5ujpkhZHymJ-304">
          <mxGeometry x="1065.203409758965" y="36.19688109161793" width="118.22457378012932" height="70.05847953216376" as="geometry" />
        </mxCell>
        <mxCell id="zIDfhM2YU5ujpkhZHymJ-195" value="Fortgate" style="fontColor=#0066CC;verticalAlign=top;verticalLabelPosition=bottom;labelPosition=center;align=center;html=1;fillColor=#CCCCCC;strokeColor=#6881B3;gradientColor=none;gradientDirection=north;strokeWidth=2;shape=mxgraph.networks.firewall;rounded=1;shadow=0;comic=0;labelBackgroundColor=#ffffff;" vertex="1" parent="zIDfhM2YU5ujpkhZHymJ-304">
          <mxGeometry x="920.9694297472074" y="80.56725146198832" width="118.22457378012932" height="116.76413255360626" as="geometry" />
        </mxCell>
        <mxCell id="zIDfhM2YU5ujpkhZHymJ-196" style="edgeStyle=none;html=1;labelBackgroundColor=none;endArrow=none;strokeWidth=2;fontFamily=Verdana;fontSize=28;fontColor=#0066CC;rounded=0;strokeColor=#6881B3;exitX=1.02;exitY=0.42;exitDx=0;exitDy=0;exitPerimeter=0;entryX=0.16;entryY=0.55;entryDx=0;entryDy=0;entryPerimeter=0;" edge="1" parent="zIDfhM2YU5ujpkhZHymJ-304" source="zIDfhM2YU5ujpkhZHymJ-195" target="zIDfhM2YU5ujpkhZHymJ-194">
          <mxGeometry relative="1" as="geometry">
            <mxPoint x="1132.591416813639" y="70.05847953216376" as="targetPoint" />
            <mxPoint x="1039.1940035273367" y="186.82261208577" as="sourcePoint" />
          </mxGeometry>
        </mxCell>
        <mxCell id="zIDfhM2YU5ujpkhZHymJ-197" style="edgeStyle=none;html=1;labelBackgroundColor=none;endArrow=none;strokeWidth=2;fontFamily=Verdana;fontSize=28;fontColor=#0066CC;rounded=0;strokeColor=#6881B3;exitX=1.008;exitY=0.587;exitDx=0;exitDy=0;exitPerimeter=0;entryX=0.16;entryY=0.55;entryDx=0;entryDy=0;entryPerimeter=0;" edge="1" parent="zIDfhM2YU5ujpkhZHymJ-304" source="zIDfhM2YU5ujpkhZHymJ-195" target="zIDfhM2YU5ujpkhZHymJ-198">
          <mxGeometry relative="1" as="geometry">
            <mxPoint x="1093.8137566137566" y="213.21130604288504" as="targetPoint" />
            <mxPoint x="991.904174015285" y="192.6608187134503" as="sourcePoint" />
          </mxGeometry>
        </mxCell>
        <mxCell id="zIDfhM2YU5ujpkhZHymJ-198" value="&lt;b style=&quot;border-color: var(--border-color); color: rgb(0, 0, 102);&quot;&gt;&lt;a style=&quot;border-color: var(--border-color);&quot; href=&quot;https://177.37.163.196/&quot;&gt;WAN 2&lt;/a&gt;&lt;/b&gt;" style="ellipse;shape=cloud;whiteSpace=wrap;html=1;rounded=1;shadow=0;comic=0;strokeWidth=1;fontFamily=Verdana;fontSize=12;fillColor=#dae8fc;strokeColor=#6c8ebf;" vertex="1" parent="zIDfhM2YU5ujpkhZHymJ-304">
          <mxGeometry x="1065.203409758965" y="163.46978557504875" width="118.22457378012932" height="70.05847953216376" as="geometry" />
        </mxCell>
        <mxCell id="zIDfhM2YU5ujpkhZHymJ-199" value="&lt;font color=&quot;#000066&quot; style=&quot;font-size: 30px;&quot;&gt;004-SantaCruz&lt;/font&gt;" style="whiteSpace=wrap;html=1;rounded=1;shadow=1;comic=0;strokeWidth=1;fontFamily=Verdana;fontSize=14;fillColor=#f5f5f5;strokeColor=none;verticalAlign=top;fontStyle=1;glass=0;" vertex="1" parent="zIDfhM2YU5ujpkhZHymJ-304">
          <mxGeometry x="1263.8206937095824" width="342.851263962375" height="321.1013645224172" as="geometry" />
        </mxCell>
        <mxCell id="zIDfhM2YU5ujpkhZHymJ-200" value="&lt;b style=&quot;border-color: var(--border-color); color: rgb(0, 0, 102);&quot;&gt;&lt;a href=&quot;https://177.221.36.237/&quot;&gt;WAN 1&lt;/a&gt;&lt;/b&gt;" style="ellipse;shape=cloud;whiteSpace=wrap;html=1;rounded=1;shadow=0;comic=0;strokeWidth=1;fontFamily=Verdana;fontSize=12;fillColor=#dae8fc;strokeColor=#6c8ebf;" vertex="1" parent="zIDfhM2YU5ujpkhZHymJ-304">
          <mxGeometry x="1478.989417989418" y="36.19688109161793" width="118.22457378012932" height="70.05847953216376" as="geometry" />
        </mxCell>
        <mxCell id="zIDfhM2YU5ujpkhZHymJ-201" value="Fortgate" style="fontColor=#0066CC;verticalAlign=top;verticalLabelPosition=bottom;labelPosition=center;align=center;html=1;fillColor=#CCCCCC;strokeColor=#6881B3;gradientColor=none;gradientDirection=north;strokeWidth=2;shape=mxgraph.networks.firewall;rounded=1;shadow=0;comic=0;labelBackgroundColor=#ffffff;" vertex="1" parent="zIDfhM2YU5ujpkhZHymJ-304">
          <mxGeometry x="1334.75543797766" y="80.56725146198832" width="118.22457378012932" height="116.76413255360626" as="geometry" />
        </mxCell>
        <mxCell id="zIDfhM2YU5ujpkhZHymJ-202" style="edgeStyle=none;html=1;labelBackgroundColor=none;endArrow=none;strokeWidth=2;fontFamily=Verdana;fontSize=28;fontColor=#0066CC;rounded=0;strokeColor=#6881B3;exitX=1.02;exitY=0.42;exitDx=0;exitDy=0;exitPerimeter=0;entryX=0.16;entryY=0.55;entryDx=0;entryDy=0;entryPerimeter=0;" edge="1" parent="zIDfhM2YU5ujpkhZHymJ-304" source="zIDfhM2YU5ujpkhZHymJ-201" target="zIDfhM2YU5ujpkhZHymJ-200">
          <mxGeometry relative="1" as="geometry">
            <mxPoint x="1546.3774250440915" y="70.05847953216376" as="targetPoint" />
            <mxPoint x="1452.9800117577893" y="186.82261208577" as="sourcePoint" />
          </mxGeometry>
        </mxCell>
        <mxCell id="zIDfhM2YU5ujpkhZHymJ-203" style="edgeStyle=none;html=1;labelBackgroundColor=none;endArrow=none;strokeWidth=2;fontFamily=Verdana;fontSize=28;fontColor=#0066CC;rounded=0;strokeColor=#6881B3;exitX=1.008;exitY=0.587;exitDx=0;exitDy=0;exitPerimeter=0;entryX=0.16;entryY=0.55;entryDx=0;entryDy=0;entryPerimeter=0;" edge="1" parent="zIDfhM2YU5ujpkhZHymJ-304" source="zIDfhM2YU5ujpkhZHymJ-201" target="zIDfhM2YU5ujpkhZHymJ-204">
          <mxGeometry relative="1" as="geometry">
            <mxPoint x="1507.5997648442092" y="213.21130604288504" as="targetPoint" />
            <mxPoint x="1405.6901822457378" y="192.6608187134503" as="sourcePoint" />
          </mxGeometry>
        </mxCell>
        <mxCell id="zIDfhM2YU5ujpkhZHymJ-204" value="&lt;b style=&quot;border-color: var(--border-color); color: rgb(0, 0, 102);&quot;&gt;&lt;a style=&quot;border-color: var(--border-color);&quot; href=&quot;https://170.244.232.32/&quot;&gt;WAN 2&lt;/a&gt;&lt;/b&gt;" style="ellipse;shape=cloud;whiteSpace=wrap;html=1;rounded=1;shadow=0;comic=0;strokeWidth=1;fontFamily=Verdana;fontSize=12;fillColor=#dae8fc;strokeColor=#6c8ebf;" vertex="1" parent="zIDfhM2YU5ujpkhZHymJ-304">
          <mxGeometry x="1478.989417989418" y="163.46978557504875" width="118.22457378012932" height="70.05847953216376" as="geometry" />
        </mxCell>
        <mxCell id="zIDfhM2YU5ujpkhZHymJ-205" value="&lt;font color=&quot;#000066&quot; style=&quot;font-size: 30px;&quot;&gt;005-Bongi&lt;/font&gt;" style="whiteSpace=wrap;html=1;rounded=1;shadow=1;comic=0;strokeWidth=1;fontFamily=Verdana;fontSize=14;fillColor=#f5f5f5;strokeColor=none;verticalAlign=top;fontStyle=1;glass=0;" vertex="1" parent="zIDfhM2YU5ujpkhZHymJ-304">
          <mxGeometry x="1668.1487360376248" width="342.851263962375" height="321.1013645224172" as="geometry" />
        </mxCell>
        <mxCell id="zIDfhM2YU5ujpkhZHymJ-206" value="&lt;b style=&quot;border-color: var(--border-color); color: rgb(0, 0, 102);&quot;&gt;&lt;a href=&quot;https://131.0.227.1/&quot;&gt;WAN 1&lt;/a&gt;&lt;/b&gt;" style="ellipse;shape=cloud;whiteSpace=wrap;html=1;rounded=1;shadow=0;comic=0;strokeWidth=1;fontFamily=Verdana;fontSize=12;fillColor=#dae8fc;strokeColor=#6c8ebf;" vertex="1" parent="zIDfhM2YU5ujpkhZHymJ-304">
          <mxGeometry x="1880.9529688418577" y="47.87329434697857" width="118.22457378012932" height="70.05847953216376" as="geometry" />
        </mxCell>
        <mxCell id="zIDfhM2YU5ujpkhZHymJ-207" value="Fortgate" style="fontColor=#0066CC;verticalAlign=top;verticalLabelPosition=bottom;labelPosition=center;align=center;html=1;fillColor=#CCCCCC;strokeColor=#6881B3;gradientColor=none;gradientDirection=north;strokeWidth=2;shape=mxgraph.networks.firewall;rounded=1;shadow=0;comic=0;labelBackgroundColor=#ffffff;" vertex="1" parent="zIDfhM2YU5ujpkhZHymJ-304">
          <mxGeometry x="1736.7189888300998" y="92.24366471734893" width="118.22457378012932" height="116.76413255360626" as="geometry" />
        </mxCell>
        <mxCell id="zIDfhM2YU5ujpkhZHymJ-208" style="edgeStyle=none;html=1;labelBackgroundColor=none;endArrow=none;strokeWidth=2;fontFamily=Verdana;fontSize=28;fontColor=#0066CC;rounded=0;strokeColor=#6881B3;exitX=1.02;exitY=0.42;exitDx=0;exitDy=0;exitPerimeter=0;entryX=0.16;entryY=0.55;entryDx=0;entryDy=0;entryPerimeter=0;" edge="1" parent="zIDfhM2YU5ujpkhZHymJ-304" source="zIDfhM2YU5ujpkhZHymJ-207" target="zIDfhM2YU5ujpkhZHymJ-206">
          <mxGeometry relative="1" as="geometry">
            <mxPoint x="1948.3409758965313" y="81.73489278752437" as="targetPoint" />
            <mxPoint x="1854.943562610229" y="198.49902534113065" as="sourcePoint" />
          </mxGeometry>
        </mxCell>
        <mxCell id="zIDfhM2YU5ujpkhZHymJ-209" style="edgeStyle=none;html=1;labelBackgroundColor=none;endArrow=none;strokeWidth=2;fontFamily=Verdana;fontSize=28;fontColor=#0066CC;rounded=0;strokeColor=#6881B3;exitX=1.008;exitY=0.587;exitDx=0;exitDy=0;exitPerimeter=0;entryX=0.16;entryY=0.55;entryDx=0;entryDy=0;entryPerimeter=0;" edge="1" parent="zIDfhM2YU5ujpkhZHymJ-304" source="zIDfhM2YU5ujpkhZHymJ-207" target="zIDfhM2YU5ujpkhZHymJ-210">
          <mxGeometry relative="1" as="geometry">
            <mxPoint x="1909.5633156966487" y="224.88771929824568" as="targetPoint" />
            <mxPoint x="1807.6537330981773" y="204.33723196881095" as="sourcePoint" />
          </mxGeometry>
        </mxCell>
        <mxCell id="zIDfhM2YU5ujpkhZHymJ-210" value="&lt;b style=&quot;border-color: var(--border-color); color: rgb(0, 0, 102);&quot;&gt;&lt;a href=&quot;https://187.87.139.239/&quot; style=&quot;border-color: var(--border-color);&quot;&gt;WAN 2&lt;/a&gt;&lt;/b&gt;" style="ellipse;shape=cloud;whiteSpace=wrap;html=1;rounded=1;shadow=0;comic=0;strokeWidth=1;fontFamily=Verdana;fontSize=12;fillColor=#dae8fc;strokeColor=#6c8ebf;" vertex="1" parent="zIDfhM2YU5ujpkhZHymJ-304">
          <mxGeometry x="1880.9529688418577" y="175.14619883040936" width="118.22457378012932" height="70.05847953216376" as="geometry" />
        </mxCell>
        <mxCell id="zIDfhM2YU5ujpkhZHymJ-293" value="&lt;font color=&quot;#000066&quot; style=&quot;font-size: 25px;&quot;&gt;026-Forrock&lt;/font&gt;" style="whiteSpace=wrap;html=1;rounded=1;shadow=1;comic=0;strokeWidth=1;fontFamily=Verdana;fontSize=14;fillColor=#f5f5f5;strokeColor=none;verticalAlign=top;fontStyle=1;glass=0;" vertex="1" parent="zIDfhM2YU5ujpkhZHymJ-304">
          <mxGeometry y="2673.898635477583" width="342.851263962375" height="321.1013645224172" as="geometry" />
        </mxCell>
        <mxCell id="zIDfhM2YU5ujpkhZHymJ-294" value="&lt;b style=&quot;border-color: var(--border-color); color: rgb(0, 0, 102);&quot;&gt;WAN 1&lt;/b&gt;" style="ellipse;shape=cloud;whiteSpace=wrap;html=1;rounded=1;shadow=0;comic=0;strokeWidth=1;fontFamily=Verdana;fontSize=12;fillColor=#dae8fc;strokeColor=#6c8ebf;" vertex="1" parent="zIDfhM2YU5ujpkhZHymJ-304">
          <mxGeometry x="216.35097001763666" y="2733.4483430799223" width="118.22457378012932" height="70.05847953216376" as="geometry" />
        </mxCell>
        <mxCell id="zIDfhM2YU5ujpkhZHymJ-295" value="Fortgate" style="fontColor=#0066CC;verticalAlign=top;verticalLabelPosition=bottom;labelPosition=center;align=center;html=1;fillColor=#CCCCCC;strokeColor=#6881B3;gradientColor=none;gradientDirection=north;strokeWidth=2;shape=mxgraph.networks.firewall;rounded=1;shadow=0;comic=0;labelBackgroundColor=#ffffff;" vertex="1" parent="zIDfhM2YU5ujpkhZHymJ-304">
          <mxGeometry x="72.11699000587889" y="2777.8187134502928" width="118.22457378012932" height="116.76413255360626" as="geometry" />
        </mxCell>
        <mxCell id="zIDfhM2YU5ujpkhZHymJ-296" style="edgeStyle=none;html=1;labelBackgroundColor=none;endArrow=none;strokeWidth=2;fontFamily=Verdana;fontSize=28;fontColor=#0066CC;rounded=0;strokeColor=#6881B3;exitX=1.02;exitY=0.42;exitDx=0;exitDy=0;exitPerimeter=0;entryX=0.16;entryY=0.55;entryDx=0;entryDy=0;entryPerimeter=0;" edge="1" parent="zIDfhM2YU5ujpkhZHymJ-304" source="zIDfhM2YU5ujpkhZHymJ-295" target="zIDfhM2YU5ujpkhZHymJ-294">
          <mxGeometry relative="1" as="geometry">
            <mxPoint x="283.7389770723104" y="2767.3099415204683" as="targetPoint" />
            <mxPoint x="190.3415637860082" y="2884.0740740740744" as="sourcePoint" />
          </mxGeometry>
        </mxCell>
        <mxCell id="zIDfhM2YU5ujpkhZHymJ-297" style="edgeStyle=none;html=1;labelBackgroundColor=none;endArrow=none;strokeWidth=2;fontFamily=Verdana;fontSize=28;fontColor=#0066CC;rounded=0;strokeColor=#6881B3;exitX=1.008;exitY=0.587;exitDx=0;exitDy=0;exitPerimeter=0;entryX=0.16;entryY=0.55;entryDx=0;entryDy=0;entryPerimeter=0;" edge="1" parent="zIDfhM2YU5ujpkhZHymJ-304" source="zIDfhM2YU5ujpkhZHymJ-295" target="zIDfhM2YU5ujpkhZHymJ-298">
          <mxGeometry relative="1" as="geometry">
            <mxPoint x="244.961316872428" y="2910.462768031189" as="targetPoint" />
            <mxPoint x="143.05173427395647" y="2889.9122807017548" as="sourcePoint" />
          </mxGeometry>
        </mxCell>
        <mxCell id="zIDfhM2YU5ujpkhZHymJ-298" value="&lt;b style=&quot;border-color: var(--border-color); color: rgb(0, 0, 102);&quot;&gt;&lt;a style=&quot;border-color: var(--border-color);&quot; href=&quot;https://190.109.80.10/&quot;&gt;WAN 2&lt;/a&gt;&lt;/b&gt;" style="ellipse;shape=cloud;whiteSpace=wrap;html=1;rounded=1;shadow=0;comic=0;strokeWidth=1;fontFamily=Verdana;fontSize=12;fillColor=#dae8fc;strokeColor=#6c8ebf;" vertex="1" parent="zIDfhM2YU5ujpkhZHymJ-304">
          <mxGeometry x="216.35097001763666" y="2860.7212475633532" width="118.22457378012932" height="70.05847953216376" as="geometry" />
        </mxCell>
      </root>
    </mxGraphModel>
  </diagram>
</mxfile>
